<svg width="44" height="74" viewBox="0 0 44 74" fill="none" xmlns="http://www.w3.org/2000/svg">
<path d="M38.0223 52.235H30.1425V30.0163C30.1425 28.5906 28.9867 27.4348 27.561 27.4348H15.9914C14.5658 27.4348 13.41 28.5906 13.41 30.0163V52.235H5.53018C3.24834 52.235 2.09008 54.9916 3.68511 56.6218L19.931 73.2237C20.942 74.2568 22.6078 74.2588 23.6209 73.2237L39.8668 56.6218C41.4629 54.9909 40.3028 52.235 38.0223 52.235Z" fill="url(#paint0_linear)"/>
<path d="M42.7969 10.3064L33.2465 0.756037C32.7624 0.271861 32.1059 0 31.4213 0H2.58145C1.15581 0 0 1.15581 0 2.58145V40.9717C0 42.3973 1.15581 43.5531 2.58145 43.5531H8.72846C9.20367 43.5531 9.58899 43.1679 9.58899 42.6927V25.7141C9.58899 24.7636 10.3595 23.9931 11.3099 23.9931H32.2433C33.1938 23.9931 33.9643 24.7636 33.9643 25.7141V42.6926C33.9643 43.1679 34.3496 43.553 34.8247 43.553H40.9717C42.3973 43.553 43.5531 42.3972 43.5531 40.9715V12.1317C43.553 11.4471 43.281 10.7905 42.7969 10.3064ZM27.9647 13.6156H15.5883C14.6379 13.6156 13.8674 12.8451 13.8674 11.8947C13.8674 10.9442 14.6379 10.1738 15.5883 10.1738H27.9647C28.9151 10.1738 29.6856 10.9442 29.6856 11.8947C29.6856 12.8451 28.9151 13.6156 27.9647 13.6156Z" fill="url(#paint1_linear)"/>
<defs>
<linearGradient id="paint0_linear" x1="-6" y1="27" x2="47.8744" y2="37.8249" gradientUnits="userSpaceOnUse">
<stop stop-color="#FFFBA3"/>
<stop offset="1" stop-color="#FF2929"/>
</linearGradient>
<linearGradient id="paint1_linear" x1="0" y1="0" x2="52.5247" y2="20.0485" gradientUnits="userSpaceOnUse">
<stop stop-color="#FFFBA3"/>
<stop offset="1" stop-color="#FF8787"/>
</linearGradient>
</defs>
</svg>
