<svg width="27" height="27" viewBox="0 0 27 27" fill="none" xmlns="http://www.w3.org/2000/svg">
<path d="M14.9916 13.5001L26.6911 1.80052C27.103 1.38861 27.103 0.720786 26.6911 0.308931C26.2792 -0.102924 25.6113 -0.102977 25.1995 0.308931L13.5 12.0085L1.80052 0.308931C1.38861 -0.102977 0.720784 -0.102977 0.30893 0.308931C-0.102924 0.720839 -0.102977 1.38867 0.30893 1.80052L12.0084 13.5L0.30893 25.1995C-0.102977 25.6115 -0.102977 26.2793 0.30893 26.6911C0.514857 26.8971 0.784804 27 1.05475 27C1.3247 27 1.59459 26.8971 1.80057 26.6911L13.5 14.9916L25.1994 26.6911C25.4054 26.8971 25.6753 27 25.9452 27C26.2152 27 26.4851 26.8971 26.6911 26.6911C27.103 26.2792 27.103 25.6114 26.6911 25.1995L14.9916 13.5001Z" fill="white"/>
<path d="M14.9916 13.5001L26.6911 1.80052C27.103 1.38861 27.103 0.720786 26.6911 0.308931C26.2792 -0.102924 25.6113 -0.102977 25.1995 0.308931L13.5 12.0085L1.80052 0.308931C1.38861 -0.102977 0.720784 -0.102977 0.30893 0.308931C-0.102924 0.720839 -0.102977 1.38867 0.30893 1.80052L12.0084 13.5L0.30893 25.1995C-0.102977 25.6115 -0.102977 26.2793 0.30893 26.6911C0.514857 26.8971 0.784804 27 1.05475 27C1.3247 27 1.59459 26.8971 1.80057 26.6911L13.5 14.9916L25.1994 26.6911C25.4054 26.8971 25.6753 27 25.9452 27C26.2152 27 26.4851 26.8971 26.6911 26.6911C27.103 26.2792 27.103 25.6114 26.6911 25.1995L14.9916 13.5001Z" fill="white"/>
</svg>
