<svg width="1095" height="163" viewBox="0 0 1095 163" fill="none" xmlns="http://www.w3.org/2000/svg">
<path d="M631.794 61.1677C632.502 46.4216 622.239 36.6392 610.657 29.9231L603.128 74.3079C608.34 74.0159 610.888 76.0016 611.815 76.936C612.973 78.104 615.869 81.6081 612.394 87.1562C619.633 85.9882 630.94 78.98 631.794 61.1677Z" fill="url(#paint0_linear)"/>
<path fill-rule="evenodd" clip-rule="evenodd" d="M533.038 9.49176L524.061 0.439585C537.574 -1.21511 573.228 0.906794 607.743 22.632C608.323 24.9681 607.743 28.4721 607.743 28.4721L610.639 29.9322C613.148 33.5336 617.415 43.7732 614.403 55.9207C611.392 68.0681 606.199 73.2463 603.979 74.317C599.346 74.317 591.47 77.0035 588.922 88.9173C586.374 100.831 581.49 103.42 579.367 103.226L528.405 103.81L494.816 83.9532L489.894 42.7804L499.449 29.9322L516.533 15.9159L528.694 10.9518L533.038 9.49176ZM593.226 26.4996C590.979 28.8486 588.878 29.9756 588.278 30.2812C575.156 27.4801 570.428 20.6674 570.428 20.6674C582.806 20.5908 593.977 23.5452 602.151 28.543C602.151 28.543 597.726 27.1041 593.226 26.4996Z" fill="url(#paint1_linear)"/>
<path fill-rule="evenodd" clip-rule="evenodd" d="M588.474 88.9219C579.478 93.3521 568.813 95.9168 557.378 95.9168C525.234 95.9168 499.177 75.6528 499.177 50.6559C499.177 32.1904 513.396 16.3076 533.785 9.26831C495.01 11.5093 463.851 42.7685 463.851 81.3393C463.851 125.854 503.391 162.635 552.166 162.635C588.588 162.635 618.905 141.443 634.757 113.091C612.945 118.014 587.125 108.655 588.474 88.9219Z" fill="url(#paint2_linear)"/>
<path fill-rule="evenodd" clip-rule="evenodd" d="M797.804 54.5386C793.668 50.4286 787.327 48 779.24 48H750.567V113.386H761.87L761.869 93.2493L761.86 93.2544V78.6729L761.869 78.6741L761.87 58.4617H778.321C786.676 58.4617 791.531 62.1107 791.644 69.0479L791.646 69.4839L791.638 69.9385C791.411 76.3982 786.316 80.4127 778.413 80.4127L773.548 80.4106L767.726 90.5924L776.023 90.5942L791.83 113.386H805.248L787.878 88.6326L788.456 88.4566C796.97 85.7652 802.999 79.4802 803.132 69.1788L803.134 68.6432C803.134 62.9453 801.204 58.1815 797.804 54.5386ZM945.082 56.7324C938.478 51.1269 931.507 48.0025 920.409 48.0025C901.175 48.0025 887.595 62.927 887.302 80.6816L887.297 81.4518C887.297 100.198 900.505 114.533 920.592 114.533C931.966 114.533 940.955 109.939 947.376 104.517V77.5003L936.46 87.4248V99.371C932.516 102.312 927.105 104.241 920.959 104.241C908.036 104.241 899.386 94.785 899.135 81.8495L899.129 81.0842C899.129 68.7704 908.21 58.4784 919.95 58.4784C928.022 58.4784 932.975 61.0514 937.928 65.2785L945.082 56.7324ZM1026.53 81.0842C1026.53 62.9812 1012.77 48.0025 993.05 48.0025C973.541 48.0025 959.688 62.9306 959.392 80.6879L959.387 81.4518C959.387 99.5548 973.146 114.533 992.866 114.533C1012.37 114.533 1026.23 99.6054 1026.52 81.848L1026.53 81.0842ZM736.958 113.431L708.707 48.6458H698.251L670 113.431L681.28 113.43L703.296 62.1541L725.473 113.43L736.958 113.431ZM882.468 113.431L854.217 48.6458H843.761L815.51 113.431L826.79 113.43L848.806 62.1541L870.984 113.43L882.468 113.431ZM1083.56 93.5817L1049.16 49.1052H1038.7V113.431H1049.8V67.6677L1085.21 113.431H1094.65V49.1052H1083.56V93.5817ZM971.22 81.0842C971.22 68.5867 980.117 58.4784 992.866 58.4784C1005.52 58.4784 1014.43 68.47 1014.69 80.7181L1014.7 81.4518C1014.7 93.9493 1005.8 104.058 993.05 104.058C980.397 104.058 971.485 94.066 971.225 81.8179L971.22 81.0842Z" fill="url(#paint3_linear)"/>
<path d="M22.9123 48C24.4425 48 25.8653 48.1038 27.1807 48.3115C30.2411 48.7787 32.845 49.8169 34.9927 51.4262C37.1403 53.0095 38.7644 55.0341 39.865 57.4999C40.9657 59.9398 41.516 62.6652 41.516 65.6761C41.516 68.687 40.9657 71.4253 39.865 73.8912C38.7644 76.331 37.1268 78.3556 34.9524 79.9649C32.8048 81.5482 30.2142 82.5735 27.1807 83.0407C25.8653 83.2483 24.4425 83.3521 22.9123 83.3521H7.16766V104.065H0V48H22.9123ZM22.6707 76.7723C24.0398 76.7723 25.2479 76.6555 26.2948 76.4219C28.8988 75.8508 30.8585 74.553 32.1739 72.5285C33.5162 70.5039 34.1873 68.2198 34.1873 65.6761C34.1873 63.1324 33.5162 60.8482 32.1739 58.8237C30.8585 56.7991 28.8988 55.5013 26.2948 54.9303C25.2479 54.6967 24.0398 54.5799 22.6707 54.5799H7.16766V76.7723H22.6707Z" fill="url(#paint4_linear)"/>
<path d="M67.6781 105.233C63.4097 105.233 59.6917 104.299 56.5239 102.43C53.383 100.535 50.967 97.9135 49.2757 94.5652C47.5845 91.1909 46.7389 87.3364 46.7389 83.0017C46.7389 78.6411 47.5979 74.7866 49.316 71.4383C51.0341 68.09 53.477 65.4944 56.6447 63.6515C59.8125 61.7827 63.4902 60.8482 67.6781 60.8482C71.9465 60.8482 75.6645 61.7827 78.8322 63.6515C82 65.5203 84.4295 68.1289 86.1207 71.4773C87.8119 74.8256 88.6576 78.6671 88.6576 83.0017C88.6576 87.3883 87.7985 91.2687 86.0804 94.643C84.3892 97.9914 81.9597 100.6 78.792 102.469C75.6242 104.312 71.9196 105.233 67.6781 105.233ZM67.6781 98.6532C72.0538 98.6532 75.3692 97.2516 77.6242 94.4484C79.906 91.6191 81.047 87.8036 81.047 83.0017C81.047 78.148 79.906 74.3454 77.6242 71.5941C75.3424 68.8168 72.027 67.4281 67.6781 67.4281C63.2755 67.4281 59.9467 68.8297 57.6917 71.633C55.4635 74.4362 54.3495 78.2258 54.3495 83.0017C54.3495 87.8555 55.4904 91.684 57.7722 94.4873C60.0809 97.2646 63.3829 98.6532 67.6781 98.6532Z" fill="url(#paint5_linear)"/>
<path d="M91.9237 61.9773L99.051 62.0163L108.756 92.7742L118.541 62.0163H124.863L134.607 92.7742L144.352 62.0163H151.439L138.151 104.065H132.191L121.681 72.1002L111.172 104.065H105.212L91.9237 61.9773Z" fill="url(#paint6_linear)"/>
<path d="M162.414 84.9874C162.709 89.3739 163.984 92.7482 166.239 95.1102C168.521 97.4722 171.662 98.6532 175.662 98.6532C178.507 98.6532 180.99 98.0173 183.111 96.7455C185.259 95.4736 186.937 93.6437 188.145 91.2558L195.03 93.5529C193.339 97.2386 190.802 100.107 187.42 102.157C184.037 104.208 180.225 105.233 175.984 105.233C171.742 105.233 168.011 104.325 164.789 102.508C161.595 100.691 159.112 98.1211 157.34 94.7988C155.595 91.4764 154.722 87.6479 154.722 83.3132C154.722 78.7709 155.581 74.8126 157.3 71.4383C159.044 68.0381 161.487 65.4295 164.628 63.6126C167.796 61.7697 171.474 60.8482 175.662 60.8482C179.823 60.8482 183.406 61.7567 186.413 63.5736C189.447 65.3646 191.769 67.9472 193.379 71.3215C194.99 74.6698 195.795 78.6541 195.795 83.2743C195.795 84.027 195.782 84.598 195.755 84.9874H162.414ZM175.903 67.0777C172.011 67.0777 168.937 68.1289 166.682 70.2314C164.427 72.3338 163.044 75.3966 162.534 79.4198H188.306C187.42 71.1917 183.286 67.0777 175.903 67.0777Z" fill="url(#paint7_linear)"/>
<path d="M214.828 64.5859C216.036 63.6515 217.458 62.9377 219.096 62.4445C220.734 61.9514 222.385 61.7048 224.049 61.7048C225.096 61.7048 226.129 61.8086 227.15 62.0163V68.5183C226.022 68.2587 224.935 68.1289 223.888 68.1289C221.284 68.1289 219.056 68.7908 217.203 70.1146C215.244 71.4643 213.875 73.2423 213.096 75.4485C212.318 77.6288 211.928 80.1336 211.928 82.9628V104.065H204.72V62.0163H211.123V68.674C212.143 66.9609 213.378 65.5982 214.828 64.5859Z" fill="url(#paint8_linear)"/>
<path d="M239.253 84.9874C239.548 89.3739 240.823 92.7482 243.078 95.1102C245.36 97.4722 248.501 98.6532 252.501 98.6532C255.346 98.6532 257.829 98.0173 259.95 96.7455C262.098 95.4736 263.776 93.6437 264.984 91.2558L271.869 93.5529C270.178 97.2386 267.641 100.107 264.259 102.157C260.876 104.208 257.064 105.233 252.823 105.233C248.581 105.233 244.85 104.325 241.628 102.508C238.434 100.691 235.951 98.1211 234.179 94.7988C232.434 91.4764 231.561 87.6479 231.561 83.3132C231.561 78.7709 232.42 74.8126 234.139 71.4383C235.883 68.0381 238.326 65.4295 241.467 63.6126C244.635 61.7697 248.313 60.8482 252.501 60.8482C256.662 60.8482 260.245 61.7567 263.252 63.5736C266.286 65.3646 268.608 67.9472 270.218 71.3215C271.829 74.6698 272.634 78.6541 272.634 83.2743C272.634 84.027 272.621 84.598 272.594 84.9874H239.253ZM252.742 67.0777C248.85 67.0777 245.776 68.1289 243.521 70.2314C241.266 72.3338 239.883 75.3966 239.373 79.4198H265.145C264.259 71.1917 260.125 67.0777 252.742 67.0777Z" fill="url(#paint9_linear)"/>
<path d="M318.646 48V104.065H312.243V99.3151C310.606 101.21 308.646 102.676 306.364 103.715C304.083 104.727 301.505 105.233 298.633 105.233C294.66 105.233 291.197 104.273 288.244 102.352C285.318 100.405 283.063 97.7578 281.479 94.4094C279.922 91.0351 279.143 87.2326 279.143 83.0017C279.143 78.7969 279.922 75.0203 281.479 71.6719C283.063 68.2976 285.318 65.6501 288.244 63.7294C291.197 61.8086 294.646 60.8482 298.593 60.8482C301.25 60.8482 303.653 61.2765 305.801 62.1331C307.975 62.9896 309.854 64.2225 311.438 65.8318V48H318.646ZM299.519 98.8868C303.734 98.8868 306.901 97.4463 309.022 94.5652C311.17 91.684 312.243 87.8296 312.243 83.0017C312.243 78.1739 311.183 74.3324 309.062 71.4773C306.942 68.6221 303.827 67.1945 299.72 67.1945C296.875 67.1945 294.472 67.8823 292.512 69.258C290.579 70.6337 289.13 72.5155 288.163 74.9035C287.224 77.2655 286.754 79.9649 286.754 83.0017C286.754 86.0646 287.224 88.7899 288.163 91.1779C289.13 93.5659 290.566 95.4477 292.472 96.8233C294.405 98.199 296.754 98.8868 299.519 98.8868Z" fill="url(#paint10_linear)"/>
<path d="M366.064 60.8482C370.01 60.8482 373.446 61.8086 376.372 63.7294C379.325 65.6501 381.58 68.2976 383.137 71.6719C384.721 75.0203 385.513 78.7969 385.513 83.0017C385.513 87.2326 384.721 91.0351 383.137 94.4094C381.58 97.7578 379.325 100.405 376.372 102.352C373.446 104.273 369.997 105.233 366.024 105.233C363.151 105.233 360.574 104.727 358.292 103.715C356.01 102.676 354.051 101.21 352.413 99.3151V104.065H346.01V48H353.218V65.8318C354.802 64.2225 356.668 62.9896 358.816 62.1331C360.99 61.2765 363.406 60.8482 366.064 60.8482ZM365.138 98.8868C367.903 98.8868 370.238 98.199 372.144 96.8233C374.077 95.4477 375.513 93.5659 376.453 91.1779C377.419 88.7899 377.902 86.0646 377.902 83.0017C377.902 79.9649 377.419 77.2655 376.453 74.9035C375.513 72.5155 374.064 70.6337 372.104 69.258C370.171 67.8823 367.782 67.1945 364.936 67.1945C360.829 67.1945 357.715 68.6221 355.594 71.4773C353.473 74.3324 352.413 78.1739 352.413 83.0017C352.413 87.8296 353.473 91.684 355.594 94.5652C357.742 97.4463 360.923 98.8868 365.138 98.8868Z" fill="url(#paint11_linear)"/>
<path d="M421.298 62.0163H428.586L404.909 122.753H397.943L405.11 103.909L387.473 62.0163H395.003L408.573 95.1102L421.298 62.0163Z" fill="url(#paint12_linear)"/>
<defs>
<linearGradient id="paint0_linear" x1="617.601" y1="46.111" x2="621.5" y2="96.2512" gradientUnits="userSpaceOnUse">
<stop stop-color="#01E8F7"/>
<stop offset="1" stop-color="#00C2FF"/>
</linearGradient>
<linearGradient id="paint1_linear" x1="530.515" y1="11.1332" x2="583.319" y2="94.6448" gradientUnits="userSpaceOnUse">
<stop stop-color="#01E8F7"/>
<stop offset="1" stop-color="#00B3EC"/>
</linearGradient>
<linearGradient id="paint2_linear" x1="550.035" y1="52.6466" x2="554.759" y2="187.653" gradientUnits="userSpaceOnUse">
<stop stop-color="#01E8F7"/>
<stop offset="1" stop-color="#00C2FF"/>
</linearGradient>
<linearGradient id="paint3_linear" x1="627.255" y1="-71.3232" x2="788.886" y2="91.9042" gradientUnits="userSpaceOnUse">
<stop stop-color="#01E8F7"/>
<stop offset="1" stop-color="#00B3EC"/>
</linearGradient>
<linearGradient id="paint4_linear" x1="-125.151" y1="-13.4504" x2="47.5845" y2="336.122" gradientUnits="userSpaceOnUse">
<stop stop-color="#01E8F7"/>
<stop offset="1" stop-color="#00B3EC"/>
</linearGradient>
<linearGradient id="paint5_linear" x1="-125.151" y1="-13.4504" x2="47.5845" y2="336.122" gradientUnits="userSpaceOnUse">
<stop stop-color="#01E8F7"/>
<stop offset="1" stop-color="#00B3EC"/>
</linearGradient>
<linearGradient id="paint6_linear" x1="-125.151" y1="-13.4504" x2="47.5845" y2="336.122" gradientUnits="userSpaceOnUse">
<stop stop-color="#01E8F7"/>
<stop offset="1" stop-color="#00B3EC"/>
</linearGradient>
<linearGradient id="paint7_linear" x1="-125.151" y1="-13.4504" x2="47.5845" y2="336.122" gradientUnits="userSpaceOnUse">
<stop stop-color="#01E8F7"/>
<stop offset="1" stop-color="#00B3EC"/>
</linearGradient>
<linearGradient id="paint8_linear" x1="-125.151" y1="-13.4504" x2="47.5845" y2="336.122" gradientUnits="userSpaceOnUse">
<stop stop-color="#01E8F7"/>
<stop offset="1" stop-color="#00B3EC"/>
</linearGradient>
<linearGradient id="paint9_linear" x1="-125.151" y1="-13.4504" x2="47.5845" y2="336.122" gradientUnits="userSpaceOnUse">
<stop stop-color="#01E8F7"/>
<stop offset="1" stop-color="#00B3EC"/>
</linearGradient>
<linearGradient id="paint10_linear" x1="-125.151" y1="-13.4504" x2="47.5845" y2="336.122" gradientUnits="userSpaceOnUse">
<stop stop-color="#01E8F7"/>
<stop offset="1" stop-color="#00B3EC"/>
</linearGradient>
<linearGradient id="paint11_linear" x1="-125.151" y1="-13.4504" x2="47.5845" y2="336.122" gradientUnits="userSpaceOnUse">
<stop stop-color="#01E8F7"/>
<stop offset="1" stop-color="#00B3EC"/>
</linearGradient>
<linearGradient id="paint12_linear" x1="-125.151" y1="-13.4504" x2="47.5845" y2="336.122" gradientUnits="userSpaceOnUse">
<stop stop-color="#01E8F7"/>
<stop offset="1" stop-color="#00B3EC"/>
</linearGradient>
</defs>
</svg>
