<?xml version="1.0" standalone="no"?>
<!DOCTYPE svg PUBLIC "-//W3C//DTD SVG 20010904//EN"
 "http://www.w3.org/TR/2001/REC-SVG-20010904/DTD/svg10.dtd">
<svg version="1.0" xmlns="http://www.w3.org/2000/svg"
 width="130.000000pt" height="130.000000pt" viewBox="0 0 130.000000 130.000000"
 preserveAspectRatio="xMidYMid meet">
<metadata>
Created by potrace 1.14, written by Peter Selinger 2001-2017
</metadata>
<g transform="translate(0.000000,130.000000) scale(0.100000,-0.100000)"
fill="#000000" stroke="none">
<path d="M810 1272 c-44 -30 -103 -45 -173 -45 -45 0 -72 8 -120 32 l-63 32
-57 -27 c-69 -31 -180 -40 -239 -20 -37 13 -37 13 -62 -23 l-25 -36 37 -74
c34 -69 37 -82 36 -156 0 -73 -5 -91 -36 -156 -19 -41 -49 -90 -66 -109 l-31
-35 29 -30 c25 -26 29 -39 31 -90 8 -237 149 -394 394 -441 72 -14 98 -24 132
-51 23 -18 47 -33 53 -33 6 0 31 16 54 35 26 21 58 37 82 40 228 32 370 140
423 320 7 22 15 74 18 115 4 65 8 79 33 104 l29 29 -34 41 c-73 89 -115 217
-101 309 4 27 23 78 41 113 l34 65 -26 39 c-22 35 -28 38 -47 28 -11 -6 -59
-12 -107 -12 -75 -1 -92 3 -145 29 l-60 30 -34 -23z"/>
</g>
</svg>
