<svg width="73" height="72" viewBox="0 0 73 72" fill="none" xmlns="http://www.w3.org/2000/svg">
<path fill-rule="evenodd" clip-rule="evenodd" d="M36.5017 6C19.9344 6 6.50391 19.4305 6.50391 35.9978C6.50391 52.5651 19.9344 65.9956 36.5017 65.9956C53.069 65.9956 66.4995 52.5651 66.4995 35.9978C66.4995 19.4305 53.069 6 36.5017 6ZM0.503906 35.9978C0.503906 16.1168 16.6207 0 36.5017 0C56.3827 0 72.4995 16.1168 72.4995 35.9978C72.4995 55.8788 56.3827 71.9956 36.5017 71.9956C16.6207 71.9956 0.503906 55.8788 0.503906 35.9978ZM36.5008 18.5605C38.1576 18.5605 39.5008 19.9036 39.5008 21.5605V35.9967C39.5008 37.6535 38.1576 38.9967 36.5008 38.9967C34.8439 38.9967 33.5008 37.6535 33.5008 35.9967V21.5605C33.5008 19.9036 34.8439 18.5605 36.5008 18.5605ZM39.5946 48.3706C39.5946 50.0791 38.2096 51.464 36.5011 51.464C34.7927 51.464 33.4077 50.0791 33.4077 48.3706C33.4077 46.6621 34.7927 45.2771 36.5011 45.2771C38.2096 45.2771 39.5946 46.6621 39.5946 48.3706Z" fill="#F77272"/>
</svg>
