<svg width="24" height="25" viewBox="0 0 24 25" fill="none" xmlns="http://www.w3.org/2000/svg">
<g clip-path="url(#clip0_4301_52821)">
<path d="M21.4998 3.49996H18.7498C18.6098 3.49996 18.4998 3.37996 18.4998 3.24996V1.49998C18.4998 0.939986 18.0498 0.49999 17.4998 0.49999C16.9398 0.49999 16.4998 0.939986 16.4998 1.49998V6.24993C16.4998 6.65993 16.1598 6.99993 15.7498 6.99993C15.3299 6.99993 14.9999 6.65993 14.9999 6.24993V3.99996C14.9999 3.71996 14.7699 3.49996 14.4999 3.49996H8.24992V3.49896C8.10992 3.49896 7.99993 3.37896 7.99993 3.24896V1.48998C7.99993 0.929986 7.54993 0.48999 6.99994 0.48999C6.43994 0.48999 5.99995 0.929986 5.99995 1.48998V6.23993C5.99995 6.64993 5.65995 6.98993 5.24995 6.98993C4.82996 6.98993 4.49996 6.64993 4.49996 6.23993V3.98996C4.49996 3.70996 4.26996 3.48996 3.99997 3.48996H2.49998C1.38999 3.48996 0.5 4.37995 0.5 5.48994V22.4898C0.5 23.5898 1.38999 24.4898 2.49998 24.4898H21.4998C22.5998 24.4898 23.4998 23.5898 23.4998 22.4898V5.48994C23.4998 4.37995 22.5998 3.48996 21.4998 3.48996V3.49996ZM20.9998 22.4998H2.99998C2.71998 22.4998 2.49998 22.2698 2.49998 21.9998V9.9999C2.49998 9.7199 2.71998 9.4999 2.99998 9.4999H20.9998C21.2698 9.4999 21.4998 9.7199 21.4998 9.9999V21.9998C21.4998 22.2698 21.2698 22.4998 20.9998 22.4998Z" fill="#46C4C2"/>
</g>
<defs>
<clipPath id="clip0_4301_52821">
<rect width="24" height="24" fill="white" transform="translate(0 0.5)"/>
</clipPath>
</defs>
</svg>
