<svg width="24" height="25" viewBox="0 0 24 25" fill="none" xmlns="http://www.w3.org/2000/svg">
<path d="M22.5 10H20.638C20.4529 9.3602 20.197 8.74305 19.875 8.16L21.192 6.844C21.3314 6.7047 21.442 6.5393 21.5174 6.35725C21.5928 6.1752 21.6317 5.98006 21.6317 5.783C21.6317 5.58594 21.5928 5.3908 21.5174 5.20875C21.442 5.0267 21.3314 4.8613 21.192 4.722L19.777 3.309C19.4957 3.02779 19.1142 2.86982 18.7165 2.86982C18.3188 2.86982 17.9373 3.02779 17.656 3.309L16.338 4.626C15.7558 4.3038 15.1392 4.04787 14.5 3.863V2C14.5 1.60218 14.342 1.22064 14.0607 0.93934C13.7794 0.658035 13.3978 0.5 13 0.5L11 0.5C10.6022 0.5 10.2206 0.658035 9.93934 0.93934C9.65803 1.22064 9.5 1.60218 9.5 2V3.863C8.86058 4.0483 8.24378 4.3042 7.661 4.626L6.343 3.309C6.06171 3.02779 5.68025 2.86982 5.2825 2.86982C4.88475 2.86982 4.50329 3.02779 4.222 3.309L2.807 4.723C2.66761 4.8623 2.55703 5.0277 2.48159 5.20975C2.40615 5.3918 2.36732 5.58694 2.36732 5.784C2.36732 5.98106 2.40615 6.1762 2.48159 6.35825C2.55703 6.5403 2.66761 6.7057 2.807 6.845L4.125 8.162C3.80259 8.74414 3.54665 9.36067 3.362 10H1.5C1.10218 10 0.720644 10.158 0.43934 10.4393C0.158035 10.7206 0 11.1022 0 11.5L0 13.5C0 13.8978 0.158035 14.2794 0.43934 14.5607C0.720644 14.842 1.10218 15 1.5 15H3.362C3.54657 15.6397 3.80252 16.2565 4.125 16.839L2.806 18.158C2.52479 18.4393 2.36682 18.8208 2.36682 19.2185C2.36682 19.6162 2.52479 19.9977 2.806 20.279L4.22 21.693C4.50682 21.964 4.88643 22.1149 5.281 22.1149C5.67557 22.1149 6.05518 21.964 6.342 21.693L7.66 20.376C8.24309 20.6981 8.86022 20.9544 9.5 21.14V23C9.5 23.3978 9.65803 23.7794 9.93934 24.0607C10.2206 24.342 10.6022 24.5 11 24.5H13C13.3978 24.5 13.7794 24.342 14.0607 24.0607C14.342 23.7794 14.5 23.3978 14.5 23V21.14C15.1394 20.9547 15.7562 20.6988 16.339 20.377L17.657 21.694C17.9383 21.9752 18.3198 22.1332 18.7175 22.1332C19.1152 22.1332 19.4967 21.9752 19.778 21.694L21.192 20.28C21.4732 19.9987 21.6312 19.6172 21.6312 19.2195C21.6312 18.8218 21.4732 18.4403 21.192 18.159L19.875 16.842C20.1973 16.2591 20.4532 15.6419 20.638 15.002H22.5C22.6971 15.002 22.8924 14.9631 23.0745 14.8876C23.2566 14.8121 23.4221 14.7015 23.5614 14.562C23.7007 14.4225 23.8111 14.2569 23.8864 14.0746C23.9617 13.8924 24.0003 13.6972 24 13.5V11.5C24 11.1022 23.842 10.7206 23.5607 10.4393C23.2794 10.158 22.8978 10 22.5 10ZM12 17.5C11.0111 17.5 10.0444 17.2068 9.22215 16.6573C8.3999 16.1079 7.75904 15.327 7.3806 14.4134C7.00216 13.4998 6.90315 12.4945 7.09607 11.5245C7.289 10.5546 7.7652 9.66373 8.46447 8.96447C9.16373 8.2652 10.0546 7.789 11.0245 7.59607C11.9945 7.40315 12.9998 7.50216 13.9134 7.8806C14.827 8.25904 15.6079 8.8999 16.1573 9.72215C16.7068 10.5444 17 11.5111 17 12.5C16.9984 13.8256 16.4711 15.0964 15.5338 16.0338C14.5964 16.9711 13.3256 17.4984 12 17.5V17.5Z" fill="#46C4C2"/>
</svg>
