<svg width="32" height="32" viewBox="0 0 32 32" fill="none" xmlns="http://www.w3.org/2000/svg">
<path fill-rule="evenodd" clip-rule="evenodd" d="M5.93182 26.7287H22.1352L21.3614 24.1562C21.4761 24.2588 28 30 28 30V4.8875C27.9227 3.3265 26.6136 2 24.9909 2L5.9375 2.0035C4.31591 2.0035 3 3.33233 3 4.89333V23.84C3 25.4862 4.31364 26.7287 5.93182 26.7287ZM17.9182 8.63017L17.8807 8.64417L17.8943 8.63017H17.9182ZM9.24659 10.1107C11.3295 8.55433 13.2602 8.629 13.2602 8.629L13.4159 8.7865C10.867 9.41067 9.71136 10.5797 9.71136 10.5797C9.71943 10.5779 9.75094 10.5621 9.80463 10.5351C10.5374 10.1666 15.4019 7.72064 21.2125 10.6567C21.2125 10.6567 20.0545 9.5635 17.6625 8.8635L17.8739 8.65C18.2045 8.65117 19.9545 8.71417 21.8273 10.12C21.8273 10.12 23.9227 13.795 23.9227 18.31C23.9102 18.2944 23.8598 18.3479 23.7669 18.4464L23.7669 18.4464C23.3456 18.8931 22.0506 20.2663 19.4557 20.3237C19.4557 20.3237 18.9193 19.7007 18.5375 19.157C20.3898 18.611 21.083 17.519 21.083 17.519C17.4773 19.85 14.317 19.486 10.5364 17.911C10.5011 17.911 10.4852 17.8947 10.467 17.876V17.869L10.4639 17.866C10.447 17.8496 10.4309 17.834 10.3977 17.834H10.3295C10.0977 17.6777 9.94318 17.6007 9.94318 17.6007C9.94318 17.6007 10.6352 18.6927 12.4136 19.2387C11.9466 19.7858 11.4841 20.4077 11.4841 20.4077C8.31818 20.3307 7.16364 18.3007 7.16364 18.3007C7.16364 13.7787 9.24659 10.1107 9.24659 10.1107ZM18.1227 16.8996C18.9307 16.8996 19.5887 16.1997 19.5887 15.3365C19.5887 14.4792 18.9341 13.7793 18.1227 13.7793V13.7828C17.3181 13.7828 16.659 14.4804 16.6567 15.3435C16.6567 16.1997 17.3147 16.8996 18.1227 16.8996ZM14.341 15.3365C14.341 16.1997 13.683 16.8996 12.8751 16.8996C12.0671 16.8996 11.4092 16.1997 11.4092 15.3435C11.4092 14.4804 12.0671 13.7828 12.8751 13.7828L12.8796 13.7793C13.6876 13.7793 14.341 14.4792 14.341 15.3365Z" fill="#46C4C2"/>
</svg>
