<svg width="25" height="25" viewBox="0 0 25 25" fill="none" xmlns="http://www.w3.org/2000/svg">
<path fill-rule="evenodd" clip-rule="evenodd" d="M12.0007 2.5C6.47745 2.5 2 6.97745 2 12.5007C2 18.0239 6.47745 22.5013 12.0007 22.5013C17.5239 22.5013 22.0013 18.0239 22.0013 12.5007C22.0013 6.97745 17.5239 2.5 12.0007 2.5ZM0 12.5007C0 5.87288 5.37288 0.5 12.0007 0.5C18.6284 0.5 24.0013 5.87288 24.0013 12.5007C24.0013 19.1284 18.6284 24.5013 12.0007 24.5013C5.37288 24.5013 0 19.1284 0 12.5007ZM12 6.68945C12.5523 6.68945 13 7.13717 13 7.68945V12.5021C13 13.0544 12.5523 13.5021 12 13.5021C11.4477 13.5021 11 13.0544 11 12.5021V7.68945C11 7.13717 11.4477 6.68945 12 6.68945ZM13.032 16.625C13.032 17.1946 12.5702 17.6563 12.0007 17.6563C11.4311 17.6563 10.9694 17.1946 10.9694 16.625C10.9694 16.0555 11.4311 15.5938 12.0007 15.5938C12.5702 15.5938 13.032 16.0555 13.032 16.625Z" fill="url(#paint0_linear_3205_17188)"/>
<defs>
<linearGradient id="paint0_linear_3205_17188" x1="-5.70166" y1="0.275878" x2="27.9432" y2="8.63455" gradientUnits="userSpaceOnUse">
<stop stop-color="#FFFBA3"/>
<stop offset="1" stop-color="#FF2929"/>
</linearGradient>
</defs>
</svg>
