<svg width="24" height="24" viewBox="0 0 24 24" fill="none" xmlns="http://www.w3.org/2000/svg">
<path d="M20.6426 10.995C20.8727 11.2706 21 11.6287 21 12C21 12.3713 20.8727 12.7294 20.6426 13.005C19.186 14.7 15.8704 18 12 18C8.12956 18 4.81403 14.7 3.35741 13.005C3.12735 12.7294 3 12.3713 3 12C3 11.6287 3.12735 11.2706 3.35741 10.995C4.81403 9.3 8.12956 6 12 6C15.8704 6 19.186 9.3 20.6426 10.995Z" stroke="#46C4C2" stroke-width="1.71" stroke-linecap="round" stroke-linejoin="round"/>
<path d="M12.0011 15C13.5334 15 14.7756 13.6569 14.7756 12C14.7756 10.3431 13.5334 9 12.0011 9C10.4688 9 9.22656 10.3431 9.22656 12C9.22656 13.6569 10.4688 15 12.0011 15Z" stroke="#46C4C2" stroke-width="1.71" stroke-linecap="round" stroke-linejoin="round"/>
</svg>
