<svg width="16" height="16" viewBox="0 0 16 16" fill="none" xmlns="http://www.w3.org/2000/svg">
<path fill-rule="evenodd" clip-rule="evenodd" d="M8.33325 12.3333C8.33325 11.9599 8.62658 11.6666 8.99991 11.6666C9.36657 11.6666 9.66657 11.9599 9.66657 12.3333V14.3332C9.66657 15.0666 9.06658 15.6666 8.33325 15.6666H1.33332C0.593327 15.6666 0 15.0666 0 14.3332V1.66669C0 0.926701 0.593327 0.333374 1.33332 0.333374H8.33325C9.06658 0.333374 9.66657 0.926701 9.66657 1.66669V3.66667C9.66657 4.03334 9.36657 4.33333 8.99991 4.33333C8.62658 4.33333 8.33325 4.03334 8.33325 3.66667V2.00002C8.33325 1.81336 8.17992 1.66669 7.99992 1.66669H1.66665C1.47999 1.66669 1.33332 1.81336 1.33332 2.00002V13.9999C1.33332 14.1799 1.47999 14.3332 1.66665 14.3332H7.99992C8.17992 14.3332 8.33325 14.1799 8.33325 13.9999V12.3333ZM11.7032 5.11265L15.7032 7.77929L15.6898 7.76596C15.7632 7.81262 15.8232 7.87929 15.8765 7.95262C16.0832 8.25929 15.9965 8.67262 15.6965 8.87928L11.6966 11.5459C11.5899 11.6193 11.4566 11.6593 11.3299 11.6593C10.9632 11.6526 10.6632 11.3526 10.6632 10.9926V9.32594H4.66329C4.10996 9.32594 3.6633 8.87261 3.6633 8.32595C3.6633 7.77262 4.10996 7.32596 4.66329 7.32596H10.6632V5.65931C10.6632 5.52598 10.7032 5.39931 10.7766 5.29265C10.9766 4.98598 11.3966 4.90599 11.7032 5.11265Z" fill="black"/>
</svg>
