<svg width="16" height="17" viewBox="0 0 16 17" fill="none" xmlns="http://www.w3.org/2000/svg">
<path d="M8.99991 12.1665C8.62658 12.1665 8.33325 12.4599 8.33325 12.8332V14.4999C8.33325 14.6799 8.17992 14.8332 7.99992 14.8332H1.66665C1.47999 14.8332 1.33332 14.6799 1.33332 14.4999V2.49998C1.33332 2.31331 1.47999 2.16665 1.66665 2.16665H7.99992C8.17992 2.16665 8.33325 2.31331 8.33325 2.49998V4.16663C8.33325 4.53329 8.62658 4.83329 8.99991 4.83329C9.36657 4.83329 9.66657 4.53329 9.66657 4.16663V2.16665C9.66657 1.42666 9.06658 0.833328 8.33325 0.833328H1.33332C0.593327 0.833328 0 1.42666 0 2.16665V14.8332C0 15.5665 0.593327 16.1665 1.33332 16.1665H8.33325C9.06658 16.1665 9.66657 15.5665 9.66657 14.8332V12.8332C9.66657 12.4599 9.36657 12.1665 8.99991 12.1665Z" fill="url(#paint0_linear_3912_4428)"/>
<path d="M15.7032 8.27925L11.7032 5.61261C11.3966 5.40595 10.9766 5.48595 10.7766 5.79261C10.7033 5.89928 10.6633 6.02594 10.6633 6.15927V7.82592H4.66332C4.10999 7.82592 3.66333 8.27259 3.66333 8.82591C3.66333 9.37257 4.10999 9.8259 4.66332 9.8259H10.6633V11.4926C10.6633 11.8526 10.9633 12.1525 11.3299 12.1592C11.4566 12.1592 11.5899 12.1192 11.6966 12.0459L15.6965 9.37924C15.9965 9.17258 16.0832 8.75925 15.8765 8.45258C15.8232 8.37925 15.7632 8.31259 15.6899 8.26592L15.7032 8.27925Z" fill="url(#paint1_linear_3912_4428)"/>
<defs>
<linearGradient id="paint0_linear_3912_4428" x1="0" y1="8.49992" x2="9.46255" y2="9.88938" gradientUnits="userSpaceOnUse">
<stop stop-color="#CF122D"/>
<stop offset="1" stop-color="#154284"/>
</linearGradient>
<linearGradient id="paint1_linear_3912_4428" x1="3.66333" y1="8.82855" x2="14.0586" y2="13.3088" gradientUnits="userSpaceOnUse">
<stop stop-color="#CF122D"/>
<stop offset="1" stop-color="#154284"/>
</linearGradient>
</defs>
</svg>
