<svg width="25" height="24" viewBox="0 0 25 24" fill="none" xmlns="http://www.w3.org/2000/svg">
<path d="M16.7859 2.57144H19.3573C19.8119 2.57144 20.248 2.75205 20.5695 3.07354C20.891 3.39504 21.0716 3.83107 21.0716 4.28573V21.4286C21.0716 21.8832 20.891 22.3193 20.5695 22.6408C20.248 22.9623 19.8119 23.1429 19.3573 23.1429H5.643C5.18834 23.1429 4.7523 22.9623 4.43081 22.6408C4.10932 22.3193 3.92871 21.8832 3.92871 21.4286V4.28573C3.92871 3.83107 4.10932 3.39504 4.43081 3.07354C4.7523 2.75205 5.18834 2.57144 5.643 2.57144H8.21442" stroke="white" stroke-width="1.71429" stroke-linecap="round" stroke-linejoin="round"/>
<path d="M15.072 0.857147H9.92913C8.98236 0.857147 8.21484 1.62466 8.21484 2.57143V3.42858C8.21484 4.37535 8.98236 5.14286 9.92913 5.14286H15.072C16.0188 5.14286 16.7863 4.37535 16.7863 3.42858V2.57143C16.7863 1.62466 16.0188 0.857147 15.072 0.857147Z" stroke="white" stroke-width="1.71429" stroke-linecap="round" stroke-linejoin="round"/>
<path d="M8.21484 14.5714L11.6434 17.1428L15.9291 10.2857" stroke="white" stroke-width="1.71429" stroke-linecap="round" stroke-linejoin="round"/>
</svg>
