<svg width="24" height="24" viewBox="0 0 24 24" fill="none" xmlns="http://www.w3.org/2000/svg">
<g clip-path="url(#clip0_4227_40429)">
<path d="M0.857422 23.1434L4.28599 19.7148" stroke="white" stroke-width="1.71429" stroke-linecap="round" stroke-linejoin="round"/>
<path d="M8.07377 21.0692C7.9144 21.2298 7.7248 21.3574 7.5159 21.4444C7.307 21.5314 7.08293 21.5762 6.85663 21.5762C6.63032 21.5762 6.40625 21.5314 6.19735 21.4444C5.98845 21.3574 5.79885 21.2298 5.63948 21.0692L2.93091 18.3606C2.77023 18.2012 2.6427 18.0116 2.55567 17.8027C2.46864 17.5938 2.42383 17.3698 2.42383 17.1434C2.42383 16.9171 2.46864 16.6931 2.55567 16.4842C2.6427 16.2753 2.77023 16.0857 2.93091 15.9263L16.9366 1.92059C17.6186 1.2386 18.5436 0.855469 19.5081 0.855469C20.4725 0.855469 21.3975 1.2386 22.0795 1.92059C22.7615 2.60257 23.1446 3.52754 23.1446 4.49202C23.1446 5.45649 22.7615 6.38146 22.0795 7.06345L8.07377 21.0692Z" stroke="white" stroke-width="1.71429" stroke-linecap="round" stroke-linejoin="round"/>
<path d="M19.7137 9.42973L12.3594 2.07544C12.2001 1.91476 12.0105 1.78723 11.8016 1.7002C11.5927 1.61317 11.3686 1.56836 11.1423 1.56836C10.916 1.56836 10.6919 1.61317 10.483 1.7002C10.2741 1.78723 10.0845 1.91476 9.92516 2.07544L4.28516 7.71544" stroke="white" stroke-width="1.71429" stroke-linecap="round" stroke-linejoin="round"/>
</g>
<defs>
<clipPath id="clip0_4227_40429">
<rect width="24" height="24" fill="white"/>
</clipPath>
</defs>
</svg>
