<svg width="40" height="40" viewBox="0 0 40 40" fill="none" xmlns="http://www.w3.org/2000/svg">
<path d="M20.0031 35.9983C28.8392 35.9983 36.0022 28.8353 36.0022 19.9992C36.0022 11.1631 28.8392 4 20.0031 4C11.167 4 4.00391 11.1631 4.00391 19.9992C4.00391 28.8353 11.167 35.9983 20.0031 35.9983Z" stroke="#46C4C2" stroke-width="2.85714" stroke-linecap="round" stroke-linejoin="round"/>
<path d="M16.3086 16.3074C16.3086 15.5771 16.5251 14.8633 16.9308 14.2561C17.3365 13.649 17.9132 13.1757 18.5878 12.8963C19.2624 12.6168 20.0048 12.5437 20.721 12.6862C21.4372 12.8286 22.0951 13.1803 22.6114 13.6966C23.1278 14.213 23.4794 14.8709 23.6219 15.5871C23.7643 16.3033 23.6912 17.0456 23.4118 17.7203C23.1323 18.3949 22.6591 18.9715 22.0519 19.3772C21.4448 19.7829 20.7309 19.9995 20.0007 19.9995V22.4609" stroke="#46C4C2" stroke-width="2.85714" stroke-linecap="round" stroke-linejoin="round"/>
<path d="M20.0023 26.1523C19.6372 26.1523 19.2803 26.2606 18.9767 26.4635C18.6731 26.6663 18.4365 26.9546 18.2968 27.2919C18.157 27.6293 18.1205 28.0004 18.1917 28.3585C18.263 28.7166 18.4388 29.0456 18.6969 29.3038C18.9551 29.5619 19.2841 29.7378 19.6422 29.809C20.0003 29.8802 20.3714 29.8437 20.7088 29.7039C21.0461 29.5642 21.3344 29.3276 21.5372 29.024C21.7401 28.7204 21.8484 28.3635 21.8484 27.9984C21.842 27.5108 21.6454 27.0449 21.3006 26.7001C20.9558 26.3553 20.4899 26.1587 20.0023 26.1523Z" fill="#46C4C2"/>
</svg>
