<svg width="32" height="32" viewBox="0 0 32 32" fill="none" xmlns="http://www.w3.org/2000/svg">
<path d="M16 2C8.26801 2 2 8.26801 2 16C2 23.732 8.26801 30 16 30C23.732 30 30 23.732 30 16C30 8.26801 23.732 2 16 2ZM23.2767 10.8559L20.7901 22.7266C20.76 22.8701 20.6944 23.0039 20.5991 23.1154C20.5039 23.227 20.3821 23.3128 20.245 23.3651C20.108 23.4173 19.9599 23.4342 19.8146 23.4143C19.6693 23.3944 19.5313 23.3383 19.4133 23.2512L15.7965 20.5791L13.6052 22.6463C13.5766 22.6733 13.5428 22.6944 13.5058 22.7083C13.4689 22.7221 13.4296 22.7285 13.3902 22.727C13.3508 22.7255 13.3121 22.7162 13.2763 22.6996C13.2406 22.6829 13.2085 22.6594 13.182 22.6302L13.1349 22.5785L13.5156 18.8939L20.378 12.6239C20.4119 12.593 20.433 12.5504 20.4372 12.5047C20.4413 12.4589 20.4281 12.4133 20.4002 12.3768C20.3723 12.3403 20.3318 12.3155 20.2865 12.3075C20.2413 12.2994 20.1947 12.3086 20.1559 12.3331L11.3797 17.8878L7.6 16.6184C7.4995 16.5846 7.41191 16.5206 7.34924 16.435C7.28657 16.3495 7.2519 16.2467 7.24999 16.1407C7.24807 16.0347 7.279 15.9307 7.33853 15.843C7.39807 15.7552 7.48329 15.6881 7.5825 15.6507L22.3711 10.0798C22.4852 10.0368 22.6087 10.0253 22.7287 10.0465C22.8488 10.0676 22.9609 10.1206 23.0535 10.1999C23.146 10.2792 23.2156 10.382 23.2548 10.4974C23.2941 10.6128 23.3016 10.7366 23.2767 10.8559Z" fill="#46C4C2"/>
</svg>
