<svg width="24" height="24" viewBox="0 0 24 24" fill="none" xmlns="http://www.w3.org/2000/svg">
<path d="M5 7.69141H19" stroke="#FF2929" stroke-width="2" stroke-linecap="round" stroke-linejoin="round"/>
<path d="M6.75 7.69141H17.25V18.7695C17.25 19.0959 17.1271 19.409 16.9083 19.6399C16.6895 19.8707 16.3928 20.0004 16.0833 20.0004H7.91667C7.60725 20.0004 7.3105 19.8707 7.09171 19.6399C6.87292 19.409 6.75 19.0959 6.75 18.7695V7.69141Z" stroke="#FF2929" stroke-width="2" stroke-linecap="round" stroke-linejoin="round"/>
<path d="M9.08203 7.69269V7.07725C9.08203 6.26111 9.38932 5.4784 9.9363 4.9013C10.4833 4.32421 11.2251 4 11.9987 4C12.7722 4 13.5141 4.32421 14.0611 4.9013C14.6081 5.4784 14.9154 6.26111 14.9154 7.07725V7.69269" stroke="#FF2929" stroke-width="2" stroke-linecap="round" stroke-linejoin="round"/>
</svg>
