<svg width="32" height="32" viewBox="0 0 32 32" fill="none" xmlns="http://www.w3.org/2000/svg">
<path d="M30 7.60446C28.9587 8.04615 27.8492 8.33892 26.6925 8.48108C27.8825 7.794 28.7908 6.71431 29.2178 5.41292C28.1083 6.05262 26.8832 6.50446 25.5777 6.75662C24.5243 5.67185 23.0227 5 21.3848 5C18.2067 5 15.6482 7.49446 15.6482 10.5525C15.6482 10.9925 15.6868 11.4155 15.7812 11.8183C11.009 11.5932 6.78625 9.38138 3.9495 6.012C3.45425 6.84292 3.16375 7.794 3.16375 8.81785C3.16375 10.7403 4.1875 12.4445 5.7135 13.4311C4.79125 13.4142 3.8865 13.1552 3.12 12.7474C3.12 12.7643 3.12 12.7863 3.12 12.8083C3.12 15.5058 5.10975 17.7465 7.719 18.2626C7.25175 18.3862 6.7425 18.4454 6.214 18.4454C5.8465 18.4454 5.4755 18.4251 5.12725 18.3506C5.871 20.5489 7.9815 22.1651 10.491 22.2175C8.538 23.6949 6.05825 24.5851 3.37375 24.5851C2.903 24.5851 2.4515 24.5648 2 24.5089C4.54275 26.0946 7.55625 27 10.806 27C21.369 27 27.144 18.5385 27.144 11.204C27.144 10.9586 27.1353 10.7217 27.123 10.4865C28.2622 9.70462 29.2195 8.72815 30 7.60446Z" fill="#46C4C2"/>
</svg>
