<svg width="32" height="33" viewBox="0 0 32 33" fill="none" xmlns="http://www.w3.org/2000/svg">
<path d="M16 11.9277V18.7849" stroke="#F77272" stroke-width="2.28571" stroke-linecap="round" stroke-linejoin="round"/>
<path d="M16.0003 26.7857C16.6315 26.7857 17.1431 26.274 17.1431 25.6429C17.1431 25.0117 16.6315 24.5 16.0003 24.5C15.3691 24.5 14.8574 25.0117 14.8574 25.6429C14.8574 26.274 15.3691 26.7857 16.0003 26.7857Z" stroke="#F77272" stroke-width="2.28571" stroke-linecap="round" stroke-linejoin="round"/>
<path d="M18.0344 2.89977C17.8426 2.52537 17.5512 2.21116 17.1923 1.99175C16.8333 1.77235 16.4208 1.65625 16.0001 1.65625C15.5795 1.65625 15.1669 1.77235 14.808 1.99175C14.4491 2.21116 14.1577 2.52537 13.9658 2.89977L1.39441 28.0426C1.21908 28.3906 1.1356 28.7776 1.15191 29.1669C1.16821 29.5562 1.28376 29.9348 1.48759 30.2669C1.69141 30.599 1.97674 30.8734 2.31647 31.0642C2.6562 31.255 3.03907 31.3557 3.4287 31.3569H28.5716C28.9612 31.3557 29.3441 31.255 29.6838 31.0642C30.0235 30.8734 30.3088 30.599 30.5127 30.2669C30.7165 29.9348 30.832 29.5562 30.8484 29.1669C30.8647 28.7776 30.7812 28.3906 30.6058 28.0426L18.0344 2.89977Z" stroke="#F77272" stroke-width="2.28571" stroke-linecap="round" stroke-linejoin="round"/>
</svg>
