<svg width="80" height="89" viewBox="0 0 80 89" fill="none" xmlns="http://www.w3.org/2000/svg">
<path d="M80 35.8673C80 16.3658 64.2052 0.5 44.7909 0.5C37.1958 0.5 29.9628 2.89129 23.8737 7.41503C17.9071 11.848 13.5528 17.9229 11.2813 24.9832L11.2211 25.1704L9.68887 34.6945L0 52.3439V58.9374H8.06011L11.308 76.7599H29.6054L32.3662 88.5H74.1911L69.35 61.2106C76.1356 54.5704 80 45.4155 80 35.8673ZM36.4281 83.3438L33.6673 71.6037H15.5869L12.3388 53.7811H5.13317V53.6715L14.6141 36.4007L16.2253 26.3855C20.3022 13.9781 31.7574 5.65624 44.7909 5.65624C61.375 5.65624 74.8668 19.2089 74.8668 35.8673C74.8668 44.9521 70.6143 53.4596 63.8014 59.3236L68.0625 83.3438H36.4281Z" fill="#003881"/>
<path opacity="0.4" d="M45.2 11.8047C32.4074 11.8047 22 22.3077 22 35.2175C22 48.1274 32.4075 58.6304 45.2 58.6304C57.9925 58.6304 68.4 48.1274 68.4 35.2175C68.4 22.3077 57.9926 11.8047 45.2 11.8047ZM45.2 53.4929C35.2147 53.4929 27.0909 45.2946 27.0909 35.2177C27.0909 25.1408 35.2147 16.9423 45.2 16.9423C55.1853 16.9423 63.3091 25.1406 63.3091 35.2175C63.3091 45.2945 55.1855 53.4929 45.2 53.4929Z" fill="#003881"/>
<path fill-rule="evenodd" clip-rule="evenodd" d="M40.7809 25.675C42.0575 24.4604 43.7334 23.8369 45.5004 23.917C48.7671 24.0667 51.4436 26.7336 51.5939 29.9882C51.6926 32.1262 50.7192 34.159 48.9903 35.4261C47.898 36.2265 47.2459 37.5496 47.2459 38.9653H43.1559C43.1559 36.2589 44.431 33.7085 46.567 32.1433C47.1922 31.6851 47.544 30.9496 47.5083 30.1756C47.4542 29.0029 46.4897 28.0418 45.3126 27.9879C44.6729 27.9582 44.0663 28.1837 43.6058 28.622C43.1447 29.0607 42.8908 29.652 42.8908 30.2869H38.8008C38.8008 28.5534 39.5225 26.8724 40.7809 25.675ZM45.2129 42.4219C44.0835 42.4219 43.168 43.3388 43.168 44.4683C43.168 45.5977 44.0835 46.5146 45.2129 46.5146C46.3424 46.5146 47.2579 45.5977 47.2579 44.4683C47.2579 43.3388 46.3424 42.4219 45.2129 42.4219Z" fill="#003881"/>
</svg>
