<svg width="24" height="24" viewBox="0 0 24 24" fill="none" xmlns="http://www.w3.org/2000/svg">
<g clip-path="url(#clip0_3743_8781)">
<path d="M0.856934 23.1434L4.28551 19.7148" stroke="white" stroke-width="1.71429" stroke-linecap="round" stroke-linejoin="round"/>
<path d="M8.07426 21.0692C7.91489 21.2298 7.72529 21.3574 7.51639 21.4444C7.30749 21.5314 7.08342 21.5762 6.85711 21.5762C6.63081 21.5762 6.40674 21.5314 6.19784 21.4444C5.98894 21.3574 5.79934 21.2298 5.63997 21.0692L2.9314 18.3606C2.77072 18.2012 2.64319 18.0116 2.55616 17.8027C2.46912 17.5938 2.42432 17.3698 2.42432 17.1434C2.42432 16.9171 2.46912 16.6931 2.55616 16.4842C2.64319 16.2753 2.77072 16.0857 2.9314 15.9263L16.9371 1.92059C17.6191 1.2386 18.5441 0.855469 19.5085 0.855469C20.473 0.855469 21.398 1.2386 22.08 1.92059C22.762 2.60257 23.1451 3.52754 23.1451 4.49202C23.1451 5.45649 22.762 6.38146 22.08 7.06345L8.07426 21.0692Z" stroke="white" stroke-width="1.71429" stroke-linecap="round" stroke-linejoin="round"/>
<path d="M19.7142 9.42777L12.3599 2.07349C12.2006 1.91281 12.011 1.78528 11.8021 1.69825C11.5932 1.61121 11.3691 1.56641 11.1428 1.56641C10.9165 1.56641 10.6924 1.61121 10.4835 1.69825C10.2746 1.78528 10.085 1.91281 9.92564 2.07349L4.28564 7.71349" stroke="white" stroke-width="1.71429" stroke-linecap="round" stroke-linejoin="round"/>
</g>
<defs>
<clipPath id="clip0_3743_8781">
<rect width="24" height="24" fill="white"/>
</clipPath>
</defs>
</svg>
