<svg width="20" height="24" viewBox="0 0 20 24" fill="none" xmlns="http://www.w3.org/2000/svg">
<path d="M10.2016 0.0493164C11.2243 0.049279 12.2073 0.445433 12.9442 1.15462C13.6811 1.86381 14.1146 2.83089 14.1537 3.85287L14.1565 4.00418H19.143C19.3629 4.00489 19.5742 4.08984 19.7334 4.24156C19.8926 4.39328 19.9876 4.60023 19.9989 4.81985C20.0101 5.03947 19.9368 5.25506 19.794 5.42228C19.6512 5.58951 19.4497 5.69565 19.2311 5.71888L19.143 5.72369H18.3926L17.2213 21.2474C17.1658 21.9825 16.8346 22.6695 16.2941 23.1707C15.7535 23.672 15.0436 23.9505 14.3064 23.9505H6.09678C5.3596 23.9505 4.64963 23.672 4.1091 23.1707C3.56856 22.6695 3.23737 21.9825 3.18187 21.2474L2.00985 5.72369H1.26014C1.0473 5.72379 0.841982 5.64493 0.683927 5.50237C0.525871 5.35982 0.426313 5.1637 0.404517 4.95198L0.400391 4.86394C0.400391 4.41893 0.73879 4.05233 1.17211 4.009L1.26014 4.00418H6.24672C6.24672 2.95529 6.66339 1.94935 7.40507 1.20767C8.14675 0.465989 9.15269 0.0493164 10.2016 0.0493164ZM16.6683 5.72369H3.73486L4.89725 21.1181C4.92013 21.4206 5.05642 21.7034 5.27883 21.9097C5.50125 22.116 5.79338 22.2308 6.09678 22.231H14.3064C14.6099 22.231 14.9022 22.1163 15.1248 21.9099C15.3473 21.7036 15.4837 21.4207 15.5066 21.1181L16.669 5.72369H16.6683ZM12.4369 9.33466C12.882 9.33466 13.2486 9.67306 13.2926 10.1064L13.2967 10.1944V17.7602C13.2977 17.9813 13.2135 18.1943 13.0617 18.3549C12.9098 18.5156 12.7018 18.6115 12.481 18.6229C12.2602 18.6342 12.0436 18.56 11.876 18.4158C11.7085 18.2715 11.6029 18.0683 11.5813 17.8483L11.5772 17.7602V10.1944C11.5772 9.71983 11.9624 9.33466 12.4369 9.33466ZM7.96622 9.33466C8.41123 9.33466 8.77783 9.67306 8.82185 10.1064L8.82598 10.1944V17.7602C8.82701 17.9813 8.74283 18.1943 8.59093 18.3549C8.43903 18.5156 8.23109 18.6115 8.0103 18.6229C7.78951 18.6342 7.57284 18.56 7.40529 18.4158C7.23775 18.2715 7.13221 18.0683 7.1106 17.8483L7.10647 17.7602V10.1944C7.10647 9.71983 7.49164 9.33466 7.96622 9.33466ZM10.2016 1.76882C9.63061 1.76879 9.08127 1.98724 8.66625 2.37937C8.25123 2.7715 8.00199 3.30757 7.96966 3.87763L7.96622 4.00418H12.4369C12.4369 3.41133 12.2014 2.84276 11.7822 2.42355C11.363 2.00433 10.7944 1.76882 10.2016 1.76882Z" fill="#FC7823"/>
</svg>
