<svg width="24" height="25" viewBox="0 0 24 25" fill="none" xmlns="http://www.w3.org/2000/svg">
<g clip-path="url(#clip0_3889_2708)">
<path d="M21.4998 3.49825H18.7498C18.6098 3.49825 18.4998 3.37825 18.4998 3.24825V1.49827C18.4998 0.938277 18.0498 0.498281 17.4998 0.498281C16.9398 0.498281 16.4998 0.938277 16.4998 1.49827V6.24822C16.4998 6.65822 16.1598 6.99822 15.7498 6.99822C15.3299 6.99822 14.9999 6.65822 14.9999 6.24822V3.99825C14.9999 3.71825 14.7699 3.49825 14.4999 3.49825H8.24992V3.49725C8.10992 3.49725 7.99993 3.37725 7.99993 3.24725V1.48827C7.99993 0.928277 7.54993 0.488281 6.99994 0.488281C6.43994 0.488281 5.99995 0.928277 5.99995 1.48827V6.23822C5.99995 6.64822 5.65995 6.98822 5.24995 6.98822C4.82996 6.98822 4.49996 6.64822 4.49996 6.23822V3.98825C4.49996 3.70825 4.26996 3.48825 3.99997 3.48825H2.49998C1.38999 3.48825 0.5 4.37824 0.5 5.48823V22.4881C0.5 23.5881 1.38999 24.488 2.49998 24.488H21.4998C22.5998 24.488 23.4998 23.5881 23.4998 22.4881V5.48823C23.4998 4.37824 22.5998 3.48825 21.4998 3.48825V3.49825ZM20.9998 22.4981H2.99998C2.71998 22.4981 2.49998 22.2681 2.49998 21.9981V9.99819C2.49998 9.71819 2.71998 9.49819 2.99998 9.49819H20.9998C21.2698 9.49819 21.4998 9.71819 21.4998 9.99819V21.9981C21.4998 22.2681 21.2698 22.4981 20.9998 22.4981Z" fill="#46C4C2"/>
</g>
<defs>
<clipPath id="clip0_3889_2708">
<rect width="24" height="24" fill="white" transform="translate(0 0.5)"/>
</clipPath>
</defs>
</svg>
