<svg width="16" height="16" viewBox="0 0 16 16" fill="none" xmlns="http://www.w3.org/2000/svg">
<path fill-rule="evenodd" clip-rule="evenodd" d="M15.2031 2.57794C15.6388 2.14219 15.6388 1.4357 15.2031 0.999935C14.7673 0.56417 14.0608 0.564186 13.6251 0.999935L8.10205 6.52294L2.57904 0.999935C2.14329 0.564186 1.43681 0.56417 1.00104 0.999935C0.565276 1.4357 0.565292 2.14219 1.00104 2.57794L6.52405 8.10094L1.00104 13.624C0.565277 14.0597 0.565276 14.7662 1.00104 15.202C1.43681 15.6377 2.14328 15.6377 2.57904 15.202L8.10205 9.67895L13.6251 15.202C14.0608 15.6377 14.7673 15.6377 15.2031 15.202C15.6388 14.7662 15.6388 14.0597 15.2031 13.624L9.68005 8.10094L15.2031 2.57794Z" fill="#EC9393"/>
</svg>
