<svg width="72" height="72" viewBox="0 0 72 72" fill="none" xmlns="http://www.w3.org/2000/svg">
<path fill-rule="evenodd" clip-rule="evenodd" d="M35.9978 6.00195C19.4305 6.00195 6 19.4324 6 35.9997C6 52.5671 19.4305 65.9975 35.9978 65.9975C52.5651 65.9975 65.9956 52.5671 65.9956 35.9997C65.9956 19.4324 52.5651 6.00195 35.9978 6.00195ZM0 35.9997C0 16.1187 16.1168 0.00195312 35.9978 0.00195312C55.8788 0.00195312 71.9956 16.1187 71.9956 35.9997C71.9956 55.8808 55.8788 71.9975 35.9978 71.9975C16.1168 71.9975 0 55.8808 0 35.9997ZM35.9969 18.5624C37.6537 18.5624 38.9969 19.9056 38.9969 21.5624V35.9986C38.9969 37.6555 37.6537 38.9986 35.9969 38.9986C34.34 38.9986 32.9969 37.6555 32.9969 35.9986V21.5624C32.9969 19.9056 34.34 18.5624 35.9969 18.5624ZM39.0907 48.3725C39.0907 50.081 37.7057 51.466 35.9972 51.466C34.2888 51.466 32.9038 50.081 32.9038 48.3725C32.9038 46.6641 34.2888 45.2791 35.9972 45.2791C37.7057 45.2791 39.0907 46.6641 39.0907 48.3725Z" fill="url(#paint0_linear_3255_152)"/>
<defs>
<linearGradient id="paint0_linear_3255_152" x1="-17.103" y1="-0.670334" x2="83.8199" y2="24.4028" gradientUnits="userSpaceOnUse">
<stop stop-color="#FFFBA3"/>
<stop offset="1" stop-color="#FF2929"/>
</linearGradient>
</defs>
</svg>
