<svg width="73" height="72" viewBox="0 0 73 72" fill="none" xmlns="http://www.w3.org/2000/svg">
<g clip-path="url(#clip0_3429_22702)">
<path fill-rule="evenodd" clip-rule="evenodd" d="M64.7859 5.14286C65.4679 5.14286 66.122 5.41377 66.6042 5.89601C67.0864 6.37825 67.3574 7.0323 67.3574 7.71429V64.2857C67.3574 64.9677 67.0864 65.6217 66.6042 66.104C66.122 66.5862 65.4679 66.8571 64.7859 66.8571H28.7859C28.1039 66.8571 27.4499 66.5862 26.9676 66.104C26.4854 65.6217 26.2145 64.9677 26.2145 64.2857V51.4286C26.2145 50.0084 25.0632 48.8571 23.6431 48.8571C22.2229 48.8571 21.0716 50.0084 21.0716 51.4286V64.2857C21.0716 66.3317 21.8844 68.2938 23.3311 69.7405C24.7778 71.1872 26.74 72 28.7859 72H64.7859C66.8319 72 68.794 71.1872 70.2408 69.7405C71.6875 68.2938 72.5002 66.3317 72.5002 64.2857V7.71429C72.5002 5.66833 71.6875 3.70617 70.2408 2.25946C68.794 0.812753 66.8319 0 64.7859 0H28.7859C26.74 0 24.7778 0.812753 23.3311 2.25946C21.8844 3.70617 21.0716 5.66833 21.0716 7.71429V20.5714C21.0716 21.9916 22.2229 23.1429 23.6431 23.1429C25.0632 23.1429 26.2145 21.9916 26.2145 20.5714V7.71429C26.2145 7.0323 26.4854 6.37825 26.9676 5.89601C27.4499 5.41377 28.1039 5.14286 28.7859 5.14286H64.7859Z" fill="#FFF"/>
<path fill-rule="evenodd" clip-rule="evenodd" d="M51.9288 36C51.9288 34.5798 50.7775 33.4286 49.3574 33.4286H8.2145C6.79433 33.4286 5.64307 34.5798 5.64307 36C5.64307 37.4202 6.79433 38.5714 8.2145 38.5714H49.3574C50.7775 38.5714 51.9288 37.4202 51.9288 36Z" fill="#FFF"/>
<path fill-rule="evenodd" clip-rule="evenodd" d="M37.2534 23.896C36.2492 24.9002 36.2492 26.5284 37.2534 27.5326L45.7208 36L37.2534 44.4674C36.2492 45.4716 36.2492 47.0998 37.2534 48.104C38.2576 49.1082 39.8857 49.1082 40.8899 48.104L51.1756 37.8183C52.1798 36.8141 52.1798 35.1859 51.1756 34.1817L40.8899 23.896C39.8857 22.8918 38.2576 22.8918 37.2534 23.896Z" fill="#FFF"/>
</g>
<defs>
<clipPath id="clip0_3429_22702">
<rect width="72" height="72" fill="white" transform="matrix(-1 0 0 1 72.5 0)"/>
</clipPath>
</defs>
</svg>
