<svg width="86" height="86" viewBox="0 0 86 86" fill="none" xmlns="http://www.w3.org/2000/svg">
<path d="M83.3125 72.5643H45.6875C44.204 72.5643 43 71.3603 43 69.8768C43 68.3933 43 17.6103 43 16.1268C43 14.6433 44.204 13.4393 45.6875 13.4393H83.3125C84.796 13.4393 86 14.6433 86 16.1268V69.8768C86 71.3603 84.796 72.5643 83.3125 72.5643Z" fill="#ECEFF1"/>
<path d="M56.4375 29.5643H45.6875C44.204 29.5643 43 28.3603 43 26.8768C43 25.3933 44.204 24.1893 45.6875 24.1893H56.4375C57.921 24.1893 59.125 25.3933 59.125 26.8768C59.125 28.3603 57.921 29.5643 56.4375 29.5643Z" fill="#46C4C2"/>
<path d="M56.4375 40.3143H45.6875C44.204 40.3143 43 39.1103 43 37.6268C43 36.1433 44.204 34.9393 45.6875 34.9393H56.4375C57.921 34.9393 59.125 36.1433 59.125 37.6268C59.125 39.1103 57.921 40.3143 56.4375 40.3143Z" fill="#46C4C2"/>
<path d="M56.4375 51.0643H45.6875C44.204 51.0643 43 49.8603 43 48.3768C43 46.8933 44.204 45.6893 45.6875 45.6893H56.4375C57.921 45.6893 59.125 46.8933 59.125 48.3768C59.125 49.8603 57.921 51.0643 56.4375 51.0643Z" fill="#46C4C2"/>
<path d="M56.4375 61.8143H45.6875C44.204 61.8143 43 60.6103 43 59.1268C43 57.6433 44.204 56.4393 45.6875 56.4393H56.4375C57.921 56.4393 59.125 57.6433 59.125 59.1268C59.125 60.6103 57.921 61.8143 56.4375 61.8143Z" fill="#46C4C2"/>
<path d="M72.5625 29.5643H67.1875C65.704 29.5643 64.5 28.3603 64.5 26.8768C64.5 25.3933 65.704 24.1893 67.1875 24.1893H72.5625C74.046 24.1893 75.25 25.3933 75.25 26.8768C75.25 28.3603 74.046 29.5643 72.5625 29.5643Z" fill="#46C4C2"/>
<path d="M72.5625 40.3143H67.1875C65.704 40.3143 64.5 39.1103 64.5 37.6268C64.5 36.1433 65.704 34.9393 67.1875 34.9393H72.5625C74.046 34.9393 75.25 36.1433 75.25 37.6268C75.25 39.1103 74.046 40.3143 72.5625 40.3143Z" fill="#46C4C2"/>
<path d="M72.5625 51.0643H67.1875C65.704 51.0643 64.5 49.8603 64.5 48.3768C64.5 46.8933 65.704 45.6893 67.1875 45.6893H72.5625C74.046 45.6893 75.25 46.8933 75.25 48.3768C75.25 49.8603 74.046 51.0643 72.5625 51.0643Z" fill="#46C4C2"/>
<path d="M72.5625 61.8143H67.1875C65.704 61.8143 64.5 60.6103 64.5 59.1268C64.5 57.6433 65.704 56.4393 67.1875 56.4393H72.5625C74.046 56.4393 75.25 57.6433 75.25 59.1268C75.25 60.6103 74.046 61.8143 72.5625 61.8143Z" fill="#46C4C2"/>
<path d="M47.4021 3.30742C46.7894 2.79679 45.967 2.57642 45.193 2.73767L2.193 10.8002C0.919125 11.0367 0 12.1439 0 13.4393V72.5643C0 73.8543 0.919125 74.9669 2.193 75.2034L45.193 83.2659C45.3543 83.2982 45.5209 83.3143 45.6875 83.3143C46.311 83.3143 46.9184 83.0993 47.4021 82.6962C48.0203 82.1855 48.375 81.4223 48.375 80.6268V5.37679C48.375 4.57592 48.0203 3.81804 47.4021 3.30742Z" fill="#46C4C2"/>
<path d="M36.9588 51.9835L28.4609 42.2709L37.0556 31.2199C37.9693 30.0482 37.7543 28.3604 36.5879 27.4467C35.4216 26.5329 33.7338 26.7479 32.8147 27.9143L24.8543 38.1483L18.1463 30.4835C17.1627 29.3548 15.4642 29.2527 14.3569 30.2309C13.2389 31.2092 13.1261 32.9077 14.1043 34.0203L21.4949 42.4698L14.0022 52.1018C13.0884 53.2735 13.3034 54.9613 14.4698 55.875C14.9643 56.2567 15.5502 56.4394 16.1253 56.4394C16.9262 56.4394 17.7163 56.0847 18.2484 55.402L25.1016 46.587L32.9168 55.5149C33.4489 56.1277 34.1907 56.4394 34.9378 56.4394C35.5667 56.4394 36.1956 56.219 36.7062 55.7729C37.8242 54.7947 37.9371 53.0962 36.9588 51.9835Z" fill="#FAFAFA"/>
</svg>
