<svg width="24" height="24" viewBox="0 0 24 24" fill="none" xmlns="http://www.w3.org/2000/svg">
<path d="M8.28381 11.3711L4.31495 15.3029C4.19906 15.4178 4.10708 15.5546 4.04431 15.7052C3.98154 15.8559 3.94922 16.0175 3.94922 16.1807C3.94922 16.3439 3.98154 16.5055 4.04431 16.6562C4.10708 16.8069 4.19906 16.9436 4.31495 17.0586L6.93613 19.6797C7.05107 19.7956 7.18781 19.8876 7.33848 19.9504C7.48915 20.0131 7.65075 20.0455 7.81397 20.0455C7.97719 20.0455 8.1388 20.0131 8.28947 19.9504C8.44013 19.8876 8.57688 19.7956 8.69182 19.6797L12.6236 15.7109" stroke="#003881" stroke-width="2" stroke-linecap="round" stroke-linejoin="round"/>
<path d="M15.7031 12.6314L19.6348 8.69963C19.7507 8.58469 19.8427 8.44795 19.9055 8.29728C19.9682 8.14661 20.0006 7.98501 20.0006 7.82179C20.0006 7.65857 19.9682 7.49696 19.9055 7.34629C19.8427 7.19563 19.7507 7.05888 19.6348 6.94394L17.0507 4.32276C16.9358 4.20687 16.7991 4.11489 16.6484 4.05212C16.4977 3.98935 16.3361 3.95703 16.1729 3.95703C16.0097 3.95703 15.8481 3.98935 15.6974 4.05212C15.5467 4.11489 15.41 4.20687 15.2951 4.32276L11.3633 8.29162" stroke="#003881" stroke-width="2" stroke-linecap="round" stroke-linejoin="round"/>
<path d="M14.4652 9.52734L9.51953 14.473" stroke="#003881" stroke-width="2" stroke-linecap="round" stroke-linejoin="round"/>
</svg>
