<svg width="37" height="42" viewBox="0 0 37 42" fill="none" xmlns="http://www.w3.org/2000/svg">
<path d="M7.875 0C6.43125 0 5.25 1.18125 5.25 2.625V39.375C5.25 40.8187 6.43125 42 7.875 42H34.125C35.5688 42 36.75 40.8187 36.75 39.375V10.5L26.25 0H7.875Z" fill="#A3EC93"/>
<path d="M28.875 10.5H36.75L26.25 0V7.875C26.25 9.31875 27.4312 10.5 28.875 10.5Z" fill="#D0F8C7"/>
<path d="M31.5 34.125C31.5 34.8469 30.9094 35.4375 30.1875 35.4375H1.3125C0.590625 35.4375 0 34.8469 0 34.125V21C0 20.2781 0.590625 19.6875 1.3125 19.6875H30.1875C30.9094 19.6875 31.5 20.2781 31.5 21V34.125Z" fill="#46C4C2"/>
<path d="M5.72119 24.8681C5.72119 24.5216 5.99419 24.1436 6.43388 24.1436H8.85807C10.2231 24.1436 11.4516 25.0571 11.4516 26.8079C11.4516 28.4669 10.2231 29.3909 8.85807 29.3909H7.10588V30.7769C7.10588 31.2389 6.81188 31.5001 6.43388 31.5001C6.08738 31.5001 5.72119 31.2389 5.72119 30.7769V24.8681ZM7.10588 25.4652V28.0797H8.85807C9.56157 28.0797 10.1181 27.4589 10.1181 26.8079C10.1181 26.0742 9.56157 25.4652 8.85807 25.4652H7.10588Z" fill="white"/>
<path d="M13.5067 31.5001C13.1602 31.5001 12.7822 31.3111 12.7822 30.8504V24.889C12.7822 24.5123 13.1602 24.238 13.5067 24.238H15.9099C20.7058 24.238 20.6008 31.5001 16.0044 31.5001H13.5067ZM14.1682 25.519V30.2204H15.9099C18.7436 30.2204 18.8696 25.519 15.9099 25.519H14.1682Z" fill="white"/>
<path d="M22.3021 25.6029V27.2711H24.9783C25.3563 27.2711 25.7343 27.6491 25.7343 28.0153C25.7343 28.3618 25.3563 28.6453 24.9783 28.6453H22.3021V30.8489C22.3021 31.2164 22.0409 31.4986 21.6734 31.4986C21.2114 31.4986 20.9292 31.2164 20.9292 30.8489V24.8876C20.9292 24.5109 21.2127 24.2366 21.6734 24.2366H25.3576C25.8196 24.2366 26.0926 24.5109 26.0926 24.8876C26.0926 25.2236 25.8196 25.6016 25.3576 25.6016H22.3021V25.6029Z" fill="white"/>
</svg>
