<svg fill="none" height="27" viewBox="0 0 27 27" width="27" xmlns="http://www.w3.org/2000/svg" xmlns:xlink="http://www.w3.org/1999/xlink"><linearGradient id="a" gradientUnits="userSpaceOnUse" x1="13.5" x2="13.662" y1="2" y2="31.4789"><stop offset="0" stop-color="#003881"/><stop offset="1" stop-color="#003881"/></linearGradient><rect height="23" rx="11.5" stroke="url(#a)" stroke-width="2.75352" width="23" x="2" y="2"/><path d="m14.4627 9.03666c0-.53175-.431-.96283-.9628-.96283s-.9628.43108-.9628.96283v3.50044h-3.50044c-.53175 0-.96283.431-.96283.9628s.43108.9628.96283.9628h3.50044v3.5004c0 .5318.431.9628.9628.9628s.9628-.431.9628-.9628v-3.5004h3.5004c.5318 0 .9628-.431.9628-.9628s-.431-.9628-.9628-.9628h-3.5004z" fill="#003881" stroke="#003881" stroke-width=".809859"/></svg>