<svg width="32" height="32" viewBox="0 0 32 32" fill="none" xmlns="http://www.w3.org/2000/svg">
<path d="M26.1551 4H5.84984C5.36027 4 4.89075 4.19448 4.54457 4.54066C4.19839 4.88684 4.00391 5.35636 4.00391 5.84593V21.5363C4.00391 22.0259 4.19839 22.4954 4.54457 22.8416C4.89075 23.1878 5.36027 23.3823 5.84984 23.3823H9.5417V27.9971L15.301 23.3823H26.1551C26.6446 23.3823 27.1142 23.1878 27.4603 22.8416C27.8065 22.4954 28.001 22.0259 28.001 21.5363V5.84593C28.001 5.35636 27.8065 4.88684 27.4603 4.54066C27.1142 4.19448 26.6446 4 26.1551 4Z" stroke="#003881" stroke-width="2" stroke-linecap="round" stroke-linejoin="round"/>
<path d="M13.2324 11.3822C13.2324 10.8345 13.3948 10.2992 13.6991 9.84386C14.0033 9.38852 14.4358 9.03362 14.9417 8.82405C15.4477 8.61448 16.0044 8.55965 16.5415 8.66649C17.0786 8.77332 17.572 9.03704 17.9592 9.42427C18.3465 9.81151 18.6102 10.3049 18.717 10.842C18.8238 11.3791 18.769 11.9358 18.5594 12.4418C18.3499 12.9477 17.995 13.3802 17.5396 13.6844C17.0843 13.9887 16.549 14.1511 16.0013 14.1511V15.074" stroke="#003881" stroke-width="2" stroke-linecap="round" stroke-linejoin="round"/>
<path d="M16 18C15.8022 18 15.6089 18.0586 15.4444 18.1685C15.28 18.2784 15.1518 18.4346 15.0761 18.6173C15.0004 18.8 14.9806 19.0011 15.0192 19.1951C15.0578 19.3891 15.153 19.5673 15.2929 19.7071C15.4327 19.847 15.6109 19.9422 15.8049 19.9808C15.9989 20.0194 16.2 19.9996 16.3827 19.9239C16.5654 19.8482 16.7216 19.72 16.8315 19.5556C16.9414 19.3911 17 19.1978 17 19C16.9965 18.7359 16.8901 18.4835 16.7033 18.2967C16.5165 18.1099 16.2641 18.0035 16 18Z" fill="#003881"/>
</svg>
