<svg fill="none" height="36" viewBox="0 0 36 36" width="36" xmlns="http://www.w3.org/2000/svg"><path d="m6.98432 34.0964c-.30866 0-.61322.1175-.8449.3412-1.48103 1.4302-3.64141 1.9063-5.561917 1.3103 1.235987-2.5749 1.407257-5.5248.449447-8.2562-1.18867-3.3983-1.486554-6.8045-.133744-10.2207 1.188494-3.001 3.482004-5.4942 6.384634-6.916-.17857.952-.26857 1.922-.26857 2.9023-.00008 4.1608 1.5999 8.0741 4.50493 11.0193 2.9054 2.9455 6.8001 4.6017 10.9664 4.6636.7741.0121 1.5447-.0334 2.3065-.1338-2.2898 4.0136-6.6082 6.6276-11.3536 6.698-2.0759.0321-4.06915-.4029-5.92541-1.2893-.16716-.0799-.34618-.1187-.52377-.1187z" fill="#46c4c2"/><path d="m22.4457.00264504c7.391-.14675804 13.535 5.83244496 13.5528 13.22185496.0044 1.8054-.3481 3.5558-1.0475 5.2028-.0102.024-.0196.0482-.0282.0728-.9578 2.7314-.7866 5.6812.4495 8.2562-1.9207.5958-4.0808.1199-5.562-1.3104-.3648-.3525-.9108-.4412-1.3686-.2224-1.856.8864-3.8495 1.3227-5.9253 1.2894-7.3332-.1089-13.07742-5.9315-13.07733-13.2558-.00009-7.16441 5.83473-13.110281 13.00663-13.25445496zm7.3566 15.23435496c1.0619 0 1.9228-.8594 1.9228-1.9195s-.8609-1.9195-1.9228-1.9195-1.9227.8594-1.9227 1.9195c.0001 1.0601.8608 1.9195 1.9227 1.9195zm-7.0836 0c1.0619 0 1.9228-.8594 1.9228-1.9195s-.8609-1.9195-1.9228-1.9195c-1.0618 0-1.9227.8594-1.9227 1.9195s.8609 1.9195 1.9227 1.9195zm-7.0836 0c1.0618 0 1.9227-.8594 1.9227-1.9195s-.8609-1.9195-1.9227-1.9195c-1.0619 0-1.9228.8594-1.9228 1.9195s.8609 1.9195 1.9228 1.9195z" fill="#a3ec93"/></svg>