<svg width="90" height="96" viewBox="0 0 90 96" fill="none" xmlns="http://www.w3.org/2000/svg">
<path d="M49.2836 26.3547C46.9025 28.7307 43.0433 28.7307 40.6622 26.3547C38.2819 23.9788 38.2819 20.1262 40.6622 17.7502C43.0433 15.3743 46.9025 15.3743 49.2836 17.7502C51.6639 20.1262 51.6639 23.9788 49.2836 26.3547Z" fill="#46C4C2"/>
<path d="M57.6105 35.5737C56.8679 35.5737 56.1252 35.2902 55.5598 34.7226C54.4289 33.5903 54.4311 31.7556 55.5634 30.6254C57.8581 28.3351 59.1215 25.2905 59.1215 22.0524C59.1215 18.8144 57.8581 15.7697 55.5634 13.4794C54.4311 12.3486 54.4289 10.5146 55.5598 9.38153C56.6899 8.24921 58.5246 8.24701 59.6569 9.37787C63.0488 12.7631 64.9164 17.2639 64.9164 22.0524C64.9164 26.8403 63.0488 31.3417 59.6569 34.727C59.0915 35.2917 58.351 35.5737 57.6105 35.5737Z" fill="#46C4C2"/>
<path d="M64.1642 44.1042C63.4216 44.1042 62.6789 43.8207 62.1135 43.2538C60.9826 42.1208 60.9848 40.2868 62.1171 39.1559C66.6948 34.5871 69.2165 28.5131 69.2165 22.0524C69.2165 15.5917 66.6948 9.51776 62.1171 4.94892C60.9848 3.81806 60.9826 1.98407 62.1135 0.851015C63.2443 -0.28131 65.0783 -0.283507 66.2106 0.847353C71.8854 6.51117 75.0114 14.0419 75.0107 22.0524C75.0107 30.0629 71.8854 37.5944 66.2106 43.2582C65.6452 43.8222 64.9047 44.1042 64.1642 44.1042Z" fill="#46C4C2"/>
<path d="M32.3203 35.5737C31.5798 35.5737 30.8394 35.2917 30.2732 34.727C26.8813 31.3418 25.0137 26.8403 25.0137 22.0525C25.0137 17.2639 26.8813 12.7632 30.2732 9.3779C31.4055 8.24704 33.2402 8.24851 34.3704 9.38156C35.5012 10.5139 35.499 12.3486 34.3667 13.4795C32.072 15.7697 30.8086 18.8144 30.8086 22.0525C30.8086 25.2905 32.072 28.3352 34.3667 30.6255C35.499 31.7556 35.5012 33.5903 34.3704 34.7226C33.8049 35.2895 33.0623 35.5737 32.3203 35.5737Z" fill="#46C4C2"/>
<path d="M25.7661 44.1042C25.0249 44.1042 24.2844 43.8222 23.719 43.2575C18.0442 37.5937 14.9189 30.0629 14.9189 22.0524C14.9189 14.0412 18.0442 6.51044 23.719 0.84662C24.8513 -0.283507 26.686 -0.282042 27.8162 0.851014C28.947 1.98334 28.9448 3.81732 27.8125 4.94818C23.2349 9.51703 20.7131 15.591 20.7131 22.0517C20.7131 28.5124 23.2349 34.5871 27.8125 39.1559C28.9448 40.2868 28.947 42.1208 27.8162 43.2538C27.2507 43.8207 26.5081 44.1042 25.7661 44.1042Z" fill="#46C4C2"/>
<path d="M83.1524 49.1133H6.77782C3.03442 49.1133 0 52.1477 0 55.8904V89.2221C0 92.9655 3.03442 95.9999 6.77782 95.9999H83.1517C86.8951 95.9999 89.9295 92.9655 89.9295 89.2221V55.8904C89.9295 52.1477 86.8951 49.1133 83.1524 49.1133ZM22.2883 87.3039H11.6133C10.0136 87.3039 8.71653 86.0068 8.71653 84.4064V60.7068C8.71653 59.1072 10.0136 57.8093 11.6133 57.8093C13.2136 57.8093 14.5107 59.1064 14.5107 60.7068V81.509H22.2883C23.8886 81.509 25.1857 82.8061 25.1857 84.4064C25.1857 86.0068 23.8886 87.3039 22.2883 87.3039ZM34.1623 84.4064C34.1623 86.0068 32.8652 87.3039 31.2648 87.3039C29.6645 87.3039 28.3674 86.0068 28.3674 84.4064V60.7068C28.3674 59.1072 29.6645 57.8093 31.2648 57.8093C32.8652 57.8093 34.1623 59.1064 34.1623 60.7068V84.4064ZM58.5402 61.5446L51.3851 85.2436C51.3844 85.2458 51.3837 85.248 51.3829 85.2502C50.6058 87.9023 46.6442 87.8371 45.84 85.2502C45.8393 85.248 45.8385 85.2458 45.8378 85.2436L38.6828 61.5446C38.2206 60.0124 39.0871 58.396 40.6193 57.9331C42.1501 57.4709 43.768 58.3374 44.2301 59.8696L48.6115 74.381L52.9928 59.8696C53.4557 58.3374 55.0721 57.4702 56.6044 57.9331C58.1359 58.396 59.003 60.0124 58.5402 61.5446ZM76.3651 68.1672C77.9654 68.1672 79.2625 69.4643 79.2625 71.0646C79.2625 72.6643 77.9654 73.9621 76.3651 73.9621H68.1429V81.509H77.9258C79.5262 81.509 80.8233 82.8061 80.8233 84.4064C80.8233 86.0068 79.5262 87.3039 77.9258 87.3039H65.2455C63.6451 87.3039 62.348 86.0068 62.348 84.4064V60.7068C62.348 59.1072 63.6451 57.8093 65.2455 57.8093H78.3162C79.9158 57.8093 81.2137 59.1064 81.2137 60.7068C81.2137 62.3071 79.9158 63.6042 78.3162 63.6042H68.1422V68.1672H76.3651Z" fill="#A3EC93"/>
</svg>

