<svg width="89" height="89" viewBox="0 0 89 89" fill="none" xmlns="http://www.w3.org/2000/svg">
<path d="M86.4323 41.8158H63.5415C62.8068 41.8158 62.1709 41.3102 62.0005 40.5954C60.3946 33.8642 55.074 28.5603 48.3337 26.9783C47.6162 26.8098 47.1074 26.1729 47.1074 25.436V2.55375C47.1074 1.60877 47.9284 0.877693 48.8681 0.977074C58.8668 2.03673 68.132 6.44196 75.3433 13.6513C82.5341 20.844 86.9364 30.0828 88.0088 40.053C88.1097 40.9935 87.3781 41.8158 86.4323 41.8158Z" fill="#CEDEEE"/>
<path d="M88.024 49.521C87.1423 57.9676 83.8729 65.8931 78.5442 72.5002C77.9503 73.2362 76.8516 73.3009 76.1829 72.632L63.3675 59.8166L59.9955 56.4446C59.4736 55.9227 59.3853 55.1126 59.773 54.4846C60.8053 52.8134 61.5768 50.9651 62.0312 48.9962C62.1976 48.2751 62.8355 47.7622 63.5756 47.7622H86.4475C87.3916 47.762 88.1222 48.5818 88.024 49.521Z" fill="#CEDEEE"/>
<path d="M71.9856 76.8444C72.6535 77.5122 72.5903 78.6087 71.8567 79.2031C64.0302 85.5445 54.3482 88.9938 44.1339 88.9938C32.3468 88.9938 21.2635 84.4015 12.9269 76.0671C4.63743 67.7778 0.0520079 56.7724 0.000426434 45.0599C-0.051327 33.2975 4.60957 21.9686 12.9271 13.6513C20.1371 6.44122 29.4036 2.03599 39.4037 0.977024C40.342 0.877816 41.1607 1.61079 41.1607 2.55421V25.4361C41.1607 26.1744 40.6499 26.8106 39.931 26.9794C31.8217 28.8845 25.7662 36.1767 25.7662 44.8603C25.7662 54.9864 34.0055 63.2276 44.1335 63.2276C47.6946 63.2276 51.021 62.2078 53.8389 60.4469C54.4674 60.0541 55.2818 60.1411 55.8057 60.665L71.9856 76.8444Z" fill="#CEDEEE"/>
</svg>

