<svg width="24" height="25" viewBox="0 0 24 25" fill="none" xmlns="http://www.w3.org/2000/svg">
<g clip-path="url(#clip0_3455_24260)">
<path d="M8.966 4.35547L9.70314 2.45261C9.82746 2.13044 10.0462 1.85332 10.3307 1.65755C10.6151 1.46178 10.9521 1.35649 11.2974 1.35547H12.7031C13.0485 1.35649 13.3854 1.46178 13.6699 1.65755C13.9544 1.85332 14.1731 2.13044 14.2974 2.45261L15.0346 4.35547L17.5374 5.79547L19.5603 5.4869C19.8971 5.44118 20.2399 5.49663 20.5452 5.64619C20.8504 5.79576 21.1043 6.0327 21.2746 6.3269L21.9603 7.5269C22.136 7.82578 22.2169 8.17092 22.1925 8.51676C22.168 8.8626 22.0392 9.19289 21.8231 9.46404L20.5717 11.0583V13.9383L21.8574 15.5326C22.0735 15.8038 22.2023 16.134 22.2267 16.4799C22.2512 16.8257 22.1703 17.1709 21.9946 17.4698L21.3089 18.6698C21.1386 18.964 20.8847 19.2009 20.5795 19.3505C20.2742 19.5 19.9314 19.5555 19.5946 19.5098L17.5717 19.2012L15.0689 20.6412L14.3317 22.544C14.2074 22.8662 13.9887 23.1433 13.7042 23.3391C13.4197 23.5349 13.0828 23.6402 12.7374 23.6412H11.2974C10.9521 23.6402 10.6151 23.5349 10.3307 23.3391C10.0462 23.1433 9.82746 22.8662 9.70314 22.544L8.966 20.6412L6.46314 19.2012L4.44028 19.5098C4.10345 19.5555 3.76064 19.5 3.45539 19.3505C3.15015 19.2009 2.89626 18.964 2.726 18.6698L2.04028 17.4698C1.86457 17.1709 1.78361 16.8257 1.8081 16.4799C1.83258 16.134 1.96136 15.8038 2.17742 15.5326L3.42885 13.9383V11.0583L2.14314 9.46404C1.92707 9.19289 1.7983 8.8626 1.77381 8.51676C1.74933 8.17092 1.83028 7.82578 2.006 7.5269L2.69171 6.3269C2.86198 6.0327 3.11587 5.79576 3.42111 5.64619C3.72635 5.49663 4.06917 5.44118 4.406 5.4869L6.42885 5.79547L8.966 4.35547ZM8.57171 12.4983C8.57171 13.1764 8.77279 13.8393 9.14953 14.4031C9.52626 14.967 10.0617 15.4064 10.6882 15.6659C11.3147 15.9254 12.0041 15.9933 12.6692 15.861C13.3342 15.7287 13.9452 15.4022 14.4246 14.9227C14.9041 14.4432 15.2307 13.8323 15.363 13.1672C15.4953 12.5021 15.4274 11.8128 15.1679 11.1863C14.9084 10.5598 14.4689 10.0243 13.9051 9.64757C13.3413 9.27084 12.6784 9.06975 12.0003 9.06975C11.091 9.06975 10.2189 9.43098 9.57592 10.074C8.93293 10.7169 8.57171 11.589 8.57171 12.4983V12.4983Z" stroke="#46C4C2" stroke-width="2" stroke-linecap="round" stroke-linejoin="round"/>
</g>
<defs>
<clipPath id="clip0_3455_24260">
<rect width="24" height="24" fill="white" transform="translate(0 0.5)"/>
</clipPath>
</defs>
</svg>
