<svg width="25" height="24" viewBox="0 0 25 24" fill="none" xmlns="http://www.w3.org/2000/svg">
<path d="M6.5 9.53877L12.1716 4.1366C12.214 4.09342 12.265 4.05905 12.3215 4.03558C12.3779 4.0121 12.4386 4 12.5 4C12.5614 4 12.6221 4.0121 12.6785 4.03558C12.735 4.05905 12.786 4.09342 12.8284 4.1366L18.5 9.53877" stroke="#46C4C2" stroke-width="2" stroke-linecap="round" stroke-linejoin="round"/>
<path d="M6.5 14.4609L12.1716 19.8631C12.214 19.9063 12.265 19.9407 12.3215 19.9641C12.3779 19.9876 12.4386 19.9997 12.5 19.9997C12.5614 19.9997 12.6221 19.9876 12.6785 19.9641C12.735 19.9407 12.786 19.9063 12.8284 19.8631L18.5 14.4609" stroke="#46C4C2" stroke-width="2" stroke-linecap="round" stroke-linejoin="round"/>
</svg>
