<svg width="76" height="76" viewBox="0 0 76 76" fill="none" xmlns="http://www.w3.org/2000/svg">
<path d="M71.25 76C73.8733 76 76 73.8733 76 71.25C76 68.6265 73.8733 66.5 71.25 66.5H4.75C2.12666 66.5 0 68.6267 0 71.25C0 73.8733 2.12666 76 4.75 76H71.25Z" fill="#46C4C2"/>
<path d="M54.8293 31.2644C53.6138 31.2644 52.3981 31.7281 51.4706 32.6557L42.7499 41.3764L42.7499 4.75001C42.7499 2.12667 40.6233 9.78689e-06 37.9999 9.55755e-06C35.3766 9.32821e-06 33.2499 2.12667 33.2499 4.75001L33.2499 41.3764L24.5292 32.6557C22.6742 30.8007 19.6667 30.8007 17.8117 32.6557C15.9567 34.5107 15.9567 37.5182 17.8117 39.3732L34.6412 56.2026C36.4963 58.0577 39.5037 58.0577 41.3588 56.2026L58.1882 39.3732C60.0432 37.5182 60.0432 34.5107 58.1882 32.6557C57.2606 31.7281 56.045 31.2644 54.8293 31.2644Z" fill="url(#paint0_linear)"/>
<defs>
<linearGradient id="paint0_linear" x1="38" y1="58" x2="18.1021" y2="7.90319" gradientUnits="userSpaceOnUse">
<stop stop-color="#A3EC93"/>
<stop offset="1" stop-color="#46C4C2"/>
</linearGradient>
</defs>
</svg>

