<svg fill="none" height="51" viewBox="0 0 45 51" width="45" xmlns="http://www.w3.org/2000/svg" xmlns:xlink="http://www.w3.org/1999/xlink"><linearGradient id="a" gradientUnits="userSpaceOnUse" x1="22.0636" x2="22.0636" y1="0" y2="50.4135"><stop offset="0" stop-color="#9feb96"/><stop offset="1" stop-color="#4ac6c1"/></linearGradient><path d="m14.6048 9.07779c-.1786.08932-.3349.20098-.4689.3573-1.4962 1.87581-2.2778 4.55561-2.8585 7.36941-.5359 2.6798-.8262 5.4936-1.1389 7.9054l-9.870521 12.3716c-.379637.4913-.3126421 1.2953.15632 1.7196l10.004501 9.1112-10.4288-.0446v2.5235l37.8073.0223v-2.5012h-17.6196l14.1582-16.1457c.4243-.4689.3797-1.2505-.067-1.6972l-3.7963-3.7963c.6922-.603 1.3399-1.2283 1.8981-1.8535 1.6526-1.8982 2.6798-4.1537 2.8585-7.1461l8.218-3.9527c.402-.2233.6699-.67.6699-1.1389v-10.78617c-.0223-.625282-.5582-1.183571-1.1612-1.228234-10.8308-1.272896-20.277 5.002264-28.3611 8.910294zm3.7964 9.33461 4.444 4.4216c-1.2506 1.4292-2.5235 2.7691-3.4391 3.975-1.2059 1.4963-1.7865 3.5508-.7593 5.047 2.2109 1.8312 4.8907.5359 6.7888-1.2283 1.0496-.9379 2.2109-1.8758 3.1711-2.6798l3.0594 3.0595-14.8281 16.9049h-2.6798l-11.1881-10.2055c5.15858-6.4538 10.3172-12.8406 15.4311-19.2944z" fill="url(#a)"/></svg>