<svg width="387" height="395" viewBox="0 0 387 395" fill="none" xmlns="http://www.w3.org/2000/svg">
<path d="M364.448 188.41C356.498 188.23 342.737 187.79 336.547 189.78C330.357 191.77 328.927 194.97 328.677 195.96C328.427 196.95 326.458 204.67 326.458 204.67C329.578 197.49 341.697 198.17 349.097 197.94C362.307 197.54 372.557 200.01 381.587 196.58C381.617 196.57 381.658 196.55 381.688 196.54L384.277 186.41C377.197 189.08 370.938 188.55 364.448 188.41Z" fill="#F40A2A"/>
<path d="M218.687 241.52C212.947 238.6 207.007 234.28 202.307 230.52L200.907 247.58C212.767 255.61 219.697 257.86 229.437 260.86C239.927 264.08 251.707 262.58 251.707 262.58L253.867 251.39C241.577 251.39 232.027 248.3 218.687 241.52Z" fill="#004086"/>
<path d="M222.568 258.66C214.858 255.52 208.108 252.23 200.918 247.39L199.558 263.91C205.918 267.54 213.238 270.81 221.318 272.93C237.628 277.2 249.578 273.79 249.578 273.79L251.708 262.58C251.718 262.58 236.378 264.28 222.568 258.66Z" fill="#F40A2A"/>
<path d="M252.228 276.81C252.208 276.82 252.198 276.83 252.178 276.84C252.188 276.83 252.208 276.82 252.228 276.81Z" fill="#B5031E"/>
<path d="M267.807 272.17C267.617 272.2 267.427 272.23 267.237 272.26C267.427 272.23 267.617 272.2 267.807 272.17Z" fill="#003061"/>
<path d="M248.688 280.83C248.707 280.77 248.727 280.72 248.747 280.66C248.717 280.72 248.697 280.78 248.688 280.83Z" fill="#004086"/>
<path d="M248.447 281.6C248.437 281.65 248.417 281.7 248.407 281.74C248.417 281.69 248.437 281.65 248.447 281.6Z" fill="#004086"/>
<path d="M248.257 282.28L249.627 273.76C234.207 277.06 215.967 273.53 199.567 263.79L198.377 278.29C198.617 278.4 198.857 278.51 199.097 278.63C211.507 284.39 221.867 285.76 227.757 286.36C233.377 286.93 243.437 286.81 248.557 285.93C248.147 284.79 248.017 283.57 248.257 282.28C248.297 282.14 248.337 281.98 248.387 281.8C248.337 281.98 248.297 282.14 248.257 282.28Z" fill="#004086"/>
<path d="M248.518 281.38C248.508 281.43 248.488 281.48 248.478 281.52C248.488 281.47 248.498 281.43 248.518 281.38Z" fill="#004086"/>
<path d="M248.657 280.91C248.637 280.96 248.627 281.02 248.607 281.07C248.627 281.01 248.637 280.96 248.657 280.91Z" fill="#004086"/>
<path d="M248.587 281.15C248.567 281.2 248.557 281.25 248.537 281.3C248.557 281.25 248.567 281.2 248.587 281.15Z" fill="#004086"/>
<path d="M282.117 300.1C280.177 299.46 272.887 297.78 266.347 296.18C263.807 297.22 257.267 298.22 241.977 298.47C220.007 298.83 206.037 296.06 197.167 292.95L196.188 304.86C198.878 305.53 208.088 307.78 213.188 308.53C219.207 309.42 229.157 311.45 245.807 310.32C262.457 309.19 277.807 306.56 281.477 305.54C285.127 304.53 286.677 304.26 286.677 302.92C286.697 302.19 285.387 301.18 282.117 300.1Z" fill="#004086"/>
<path d="M260.107 294.53C260.117 294.53 260.127 294.53 260.137 294.54C260.127 294.53 260.117 294.53 260.107 294.53Z" fill="#004086"/>
<path d="M340.638 260.18C340.688 260.25 340.728 260.31 340.768 260.38C340.728 260.31 340.688 260.25 340.638 260.18Z" fill="#F40A2A"/>
<path d="M324.188 243.88C323.198 242.66 320.498 239.75 319.348 236.53C313.498 236.68 306.688 236.89 302.238 237.02C293.428 237.29 272.078 237.6 263.018 241.01C257.488 243.09 254.768 245.63 253.808 250.71L252.348 258.97C258.588 247.75 274.308 247.93 296.458 247.54C314.378 247.22 322.888 248.82 327.938 247.73C326.208 246.06 324.818 244.65 324.188 243.88Z" fill="#004086"/>
<path d="M379.207 205.63C370.177 209.06 359.927 206.59 346.717 206.99C339.397 207.21 327.457 206.55 324.187 213.49C324.077 213.75 324.007 213.97 323.967 214.13C323.717 215.12 321.607 222.74 321.607 222.74C324.727 215.56 336.867 216.24 344.267 216.02C357.477 215.62 367.727 218.09 376.757 214.66C376.867 214.62 376.977 214.57 377.087 214.53L379.377 205.57C379.317 205.59 379.257 205.61 379.207 205.63Z" fill="#F40A2A"/>
<path d="M381.578 196.57C372.548 200 362.298 197.53 349.088 197.93C343.428 198.1 335.008 197.75 329.958 200.79C327.328 202.44 326.538 204.22 326.358 204.93C326.108 205.92 324.078 213.73 324.078 213.73C327.198 206.55 339.318 207.23 346.718 207C359.928 206.6 370.178 209.07 379.208 205.64C379.258 205.62 379.318 205.6 379.368 205.57L381.678 196.53C381.648 196.55 381.608 196.56 381.578 196.57Z" fill="#004086"/>
<path d="M366.647 178.75C358.697 178.4 344.967 178.2 338.797 180.27C332.627 182.33 331.347 185.65 331.117 186.63C330.877 187.62 328.837 195.48 328.837 195.48C329.367 194.18 331.137 191.51 336.557 189.77C340.277 188.57 346.747 188.25 353.027 188.23C357.107 188.13 360.897 188.27 364.457 188.4C370.947 188.55 377.207 189.07 384.267 186.4L386.747 176.69C379.687 180.02 373.217 179.04 366.647 178.75Z" fill="#004086"/>
<path d="M341.188 261.07C340.377 259.41 338.567 257.85 337.607 256.89C336.167 260.08 328.217 259.33 325.797 259.25C323.377 259.17 306.788 258.91 298.208 258.92C289.638 258.93 274.907 259.29 265.397 261.13C257.897 262.58 253.907 265.3 251.747 268.27C250.597 269.85 249.957 271.16 249.657 273.09L248.208 282.29C248.468 281.38 250.077 277.45 255.857 274.49C261.707 271.5 270.267 271.52 278.647 270.94C280.717 270.8 289.627 270.28 292.527 270.19C314.467 269.48 329.198 272.58 337.018 270.1C344.848 267.6 341.998 262.73 341.188 261.07Z" fill="#004086"/>
<path d="M377.078 214.53C376.968 214.57 376.858 214.62 376.748 214.66C367.718 218.09 357.468 215.62 344.258 216.02C336.858 216.24 324.718 215.56 321.598 222.74C321.598 222.74 321.508 222.99 321.478 223.14C321.228 224.13 319.138 231.75 319.138 231.75C322.258 224.57 334.378 225.25 341.778 225.02C354.988 224.62 365.238 227.09 374.268 223.66C374.448 223.59 374.628 223.52 374.808 223.44L377.078 214.53Z" fill="#004086"/>
<path d="M279.867 287.74C271.297 285.23 262.417 282.88 258.577 281.01C255.527 279.53 253.877 277.69 253.167 276.13C249.627 278.62 248.447 281.33 248.257 282.28C247.347 286.95 251.397 290.66 255.747 292.96C260.097 295.26 278.597 298.88 282.157 300.21C285.377 301.42 286.507 302.13 286.697 302.95C286.697 302.95 287.997 296.62 288.427 294.04C289.017 290.4 283.717 288.86 279.867 287.74Z" fill="#003061"/>
<path d="M259.417 273.1C259.467 273.09 259.507 273.07 259.557 273.06C259.507 273.08 259.467 273.09 259.417 273.1Z" fill="#003061"/>
<path d="M259.008 273.23C258.988 273.24 258.978 273.24 258.958 273.25C258.978 273.24 258.988 273.23 259.008 273.23Z" fill="#003061"/>
<path d="M260.527 272.8C260.567 272.79 260.607 272.78 260.647 272.77C260.617 272.78 260.577 272.79 260.527 272.8Z" fill="#003061"/>
<path d="M259.968 272.95C260.018 272.94 260.058 272.93 260.108 272.91C260.058 272.92 260.018 272.93 259.968 272.95Z" fill="#003061"/>
<path d="M261.107 272.66C261.137 272.65 261.157 272.65 261.187 272.64C261.157 272.65 261.127 272.65 261.107 272.66Z" fill="#003061"/>
<path d="M346.478 225C344.958 224.98 343.388 224.99 341.778 225.04C339.448 225.11 336.648 225.09 333.808 225.26C333.988 225.56 334.188 225.87 334.428 226.18C338.148 231.07 342.328 235.1 346.538 239.53C348.148 241.22 348.998 243.4 348.968 244.84L351.748 232.6C351.728 231.4 351.538 230.26 350.608 229.4C349.128 227.96 347.708 226.54 346.478 225Z" fill="#003061"/>
<path d="M334.538 225.21C334.518 225.21 334.498 225.21 334.478 225.21C334.498 225.22 334.518 225.22 334.538 225.21Z" fill="#B5031E"/>
<path d="M353.398 225.24C351.188 225.14 348.878 225.04 346.468 225C347.698 226.54 348.468 227.2 349.828 228.73C351.178 230.24 351.788 231.6 351.728 232.55L353.398 225.24Z" fill="#B5031E"/>
<path d="M279.387 275.8C273.617 274.36 268.977 273.28 265.507 271.9C261.917 272.36 258.617 273.09 255.897 274.47C254.857 275 253.947 275.56 253.157 276.13C253.867 277.69 255.517 279.53 258.567 281.01C262.407 282.88 271.287 285.22 279.857 287.74C283.517 288.81 288.347 290.29 288.487 293.6C288.777 291.81 289.937 284.72 290.227 282.62C290.777 278.7 283.277 276.77 279.387 275.8Z" fill="#B5031E"/>
<path d="M266.278 296.21C261.728 295.07 257.538 293.9 255.758 292.96C252.618 291.3 249.628 288.9 248.558 285.93C243.438 286.81 233.388 286.93 227.768 286.36C221.878 285.76 211.518 284.39 199.108 278.63C198.868 278.52 198.628 278.41 198.388 278.29L197.178 292.96C206.048 296.07 220.018 298.84 241.988 298.48C257.118 298.22 263.678 297.24 266.278 296.21Z" fill="#F40A2A"/>
<path d="M276.508 275.08C277.448 275.29 278.408 275.53 279.388 275.8C279.398 275.8 279.418 275.81 279.428 275.81C283.268 276.77 290.548 278.66 290.258 282.43C290.608 279.93 291.918 272.66 292.318 270.19C288.488 270.32 280.358 270.81 278.698 270.93C274.208 271.23 269.658 271.37 265.508 271.9C268.388 273.04 272.058 273.97 276.508 275.08Z" fill="#003061"/>
<path d="M263.017 241.01C272.087 237.6 293.427 237.28 302.237 237.02C303.077 236.99 303.987 236.97 304.967 236.94C309.207 236.81 314.597 236.66 319.347 236.53C318.807 235 318.577 233.49 319.067 231.97L320.967 225.01C316.637 225.23 307.887 224.94 300.347 225.37C275.457 226.79 262.227 227.3 256.267 238.31C255.877 240.43 254.807 245.39 253.797 250.71C254.777 245.63 257.487 243.09 263.017 241.01Z" fill="#F40A2A"/>
<path d="M256.157 238.9L256.147 238.97C256.147 238.94 256.157 238.92 256.157 238.9Z" fill="#004086"/>
<path d="M306.408 214.11C297.378 214.38 278.048 214.74 270.998 217.26C259.738 221.28 258.408 227.44 257.758 230.85L256.268 238.3C262.238 227.31 275.468 226.8 300.338 225.38C307.878 224.95 316.568 225.24 320.888 225.03C320.888 225.03 320.938 225.03 320.958 225.03L324.088 213.65C318.138 213.66 311.008 213.98 306.408 214.11Z" fill="#004086"/>
<path d="M251.758 268.27C253.908 265.3 257.908 262.59 265.408 261.13C265.438 261.12 265.458 261.12 265.488 261.11C275.028 259.3 289.688 258.92 298.258 258.91C306.828 258.9 323.418 259.16 325.848 259.24C327.358 259.29 331.038 259.6 333.928 259.05C335.648 258.72 337.088 258.08 337.618 256.89C335.088 254.48 330.998 250.69 327.938 247.72C322.888 248.82 314.378 247.22 296.458 247.53C274.308 247.92 258.598 247.75 252.348 258.96C251.568 263.04 250.598 268.39 249.968 271.72C250.328 270.48 250.898 269.45 251.758 268.27Z" fill="#F40A2A"/>
<path d="M348.958 244.83L349.087 244.28L348.958 244.81C348.958 244.82 348.958 244.82 348.958 244.83Z" fill="#B5031E"/>
<path d="M346.527 239.52C342.317 235.09 338.137 231.06 334.417 226.17C334.177 225.86 333.977 225.55 333.797 225.25C330.347 225.45 326.837 225.93 324.047 227.16C324.147 227.65 324.287 228.14 324.447 228.64C324.447 228.65 324.457 228.66 324.457 228.67C324.497 228.79 324.537 228.9 324.577 229.02V229.03C324.667 229.28 324.767 229.52 324.867 229.77C324.867 229.78 324.877 229.79 324.877 229.8C324.977 230.04 325.087 230.28 325.207 230.51C325.217 230.53 325.237 230.56 325.247 230.58C325.297 230.68 325.347 230.78 325.397 230.87C325.447 230.96 325.497 231.05 325.547 231.14C325.567 231.17 325.587 231.2 325.597 231.23C325.627 231.28 325.657 231.32 325.687 231.37C325.827 231.6 325.977 231.82 326.137 232.05C326.227 232.18 326.317 232.3 326.417 232.43C326.557 232.61 326.707 232.79 326.857 232.97C331.917 238.7 335.337 242.32 337.877 244.92C339.377 246.43 340.387 247.38 341.537 248.59C342.467 249.52 343.277 250.33 344.057 251.18C345.707 252.97 346.027 254.63 345.627 257.02L348.927 244.81C348.977 243.36 348.137 241.2 346.527 239.52Z" fill="#B5031E"/>
<path d="M349.337 243.18L349.087 244.28L349.337 243.23C349.337 243.22 349.337 243.2 349.337 243.18Z" fill="#B5031E"/>
<path d="M337.607 256.89C338.537 257.82 340.287 259.33 341.117 260.94C341.247 261.17 341.357 261.4 341.467 261.64C342.017 262.77 342.767 264.57 342.087 266.33C346.217 256.31 347.237 254.59 344.087 251.18C340.957 247.79 337.557 245.05 326.887 232.97C325.337 231.22 324.467 229.11 324.047 227.17C321.837 228.15 320.077 229.6 319.137 231.77C317.787 235.68 320.557 240.1 325.477 245.3C328.947 248.96 334.047 253.44 337.607 256.89Z" fill="#003061"/>
<path d="M267.458 348.11C267.298 331.27 267.318 302.14 262.678 289.17C258.038 276.2 251.178 273.39 249.068 272.93C246.968 272.47 230.498 268.81 230.498 268.81C245.898 274.93 245.288 300.62 246.258 316.25C247.998 344.18 243.468 366.02 251.338 384.9C251.368 384.97 251.398 385.04 251.428 385.11L273.028 389.9C266.888 375.14 267.588 361.86 267.458 348.11Z" fill="#F40A2A"/>
<path d="M145.228 43.3C151.008 30.96 159.748 18.09 167.398 7.89996L131.218 6.08997C115.028 31.73 110.718 46.54 105.038 67.36C98.9276 89.77 102.908 114.6 102.908 114.6L126.718 118.42C125.898 92.41 131.798 71.99 145.228 43.3Z" fill="#004086"/>
<path d="M109.238 52.68C115.368 36.15 121.868 21.65 131.628 6.10997L96.5777 4.34998C89.3377 18.06 82.8976 33.77 78.9676 50.99C71.0276 85.8 79.0576 110.85 79.0576 110.85L102.918 114.6C102.908 114.6 98.2676 82.27 109.238 52.68Z" fill="#F40A2A"/>
<path d="M61.1572 108C61.1272 108 61.1172 108 61.1172 108C61.1272 108 61.1372 108.01 61.1572 108Z" fill="#F40A2A"/>
<path d="M72.8373 116.64C72.8173 116.61 72.7973 116.57 72.7773 116.54C72.7873 116.57 72.8173 116.61 72.8373 116.64Z" fill="#B5031E"/>
<path d="M83.6978 149.3C83.6178 148.9 83.5478 148.49 83.4678 148.1V148.11C83.5478 148.51 83.6178 148.91 83.6978 149.3Z" fill="#003061"/>
<path d="M64.0776 109.43C64.1976 109.47 64.3176 109.5 64.4376 109.54C64.3176 109.5 64.1976 109.46 64.0776 109.43Z" fill="#004086"/>
<path d="M62.4475 108.98C62.3475 108.95 62.2475 108.93 62.1475 108.9C62.2475 108.93 62.3475 108.95 62.4475 108.98Z" fill="#004086"/>
<path d="M60.9973 108.62L79.1073 110.95C71.0873 78.5401 77.3173 39.7301 96.8273 4.37007L66.0673 2.83008C65.8473 3.34008 65.6273 3.85007 65.4073 4.37007C54.0673 31.0301 51.8573 53.0401 50.9873 65.5401C50.1573 77.4801 51.0973 98.7501 53.2973 109.52C55.6673 108.56 58.2373 108.2 60.9973 108.62C61.2873 108.69 61.6373 108.78 62.0173 108.87C61.6373 108.78 61.2873 108.7 60.9973 108.62Z" fill="#004086"/>
<path d="M62.9174 109.1C62.8174 109.07 62.7074 109.05 62.6074 109.02C62.7074 109.05 62.8174 109.07 62.9174 109.1Z" fill="#004086"/>
<path d="M63.9176 109.38C63.8076 109.35 63.6876 109.32 63.5776 109.28C63.6976 109.31 63.8076 109.34 63.9176 109.38Z" fill="#004086"/>
<path d="M63.4177 109.23C63.3077 109.2 63.1977 109.17 63.0977 109.14C63.1977 109.18 63.3077 109.2 63.4177 109.23Z" fill="#004086"/>
<path d="M25.5774 181.47C26.8074 177.32 29.8574 161.79 32.8174 147.84V147.85C30.4574 142.54 27.8874 128.79 26.3174 96.45C24.0674 49.99 28.9774 20.24 34.9574 1.27L9.68742 0C8.45742 5.74 4.31743 25.37 3.07743 36.21C1.60743 49.01 -2.03259 70.19 1.48741 105.34C5.00741 140.49 11.6074 172.79 14.0074 180.5C16.3874 188.16 17.0674 191.42 19.9074 191.33C21.4674 191.29 23.4974 188.45 25.5774 181.47Z" fill="#004086"/>
<path d="M35.8772 134.52C35.8772 134.54 35.8672 134.56 35.8672 134.57C35.8672 134.56 35.8672 134.54 35.8772 134.52Z" fill="#004086"/>
<path d="M113.987 302.58C113.847 302.68 113.707 302.78 113.567 302.87C113.707 302.78 113.847 302.68 113.987 302.58Z" fill="#F40A2A"/>
<path d="M147.358 266.68C149.868 264.5 155.838 258.6 162.588 255.94C161.868 243.57 160.978 229.18 160.388 219.76C159.228 201.13 157.118 156 149.288 137.04C144.508 125.47 138.958 119.91 128.148 118.21L110.578 115.68C134.738 128.13 135.418 161.4 137.748 208.23C139.628 246.11 136.818 264.23 139.478 274.84C142.898 271.11 145.778 268.06 147.358 266.68Z" fill="#004086"/>
<path d="M231.997 380.51C224.127 361.63 228.657 339.79 226.917 311.86C225.957 296.39 226.538 271.09 211.638 264.62C211.068 264.4 210.608 264.27 210.268 264.2C208.168 263.74 191.897 259.78 191.897 259.78C207.297 265.9 206.677 291.63 207.647 307.27C209.387 335.2 204.857 357.04 212.727 375.92C212.827 376.15 212.927 376.38 213.027 376.61L232.138 380.85C232.098 380.73 232.047 380.62 231.997 380.51Z" fill="#F40A2A"/>
<path d="M251.337 384.91C243.467 366.03 247.997 344.19 246.257 316.26C245.517 304.3 245.697 286.45 238.917 275.98C235.257 270.52 231.427 268.98 229.927 268.65C227.827 268.19 211.157 264.42 211.157 264.42C226.557 270.54 225.947 296.23 226.917 311.86C228.657 339.79 224.127 361.63 231.997 380.51C232.047 380.62 232.097 380.74 232.147 380.85L251.427 385.12C251.397 385.05 251.367 384.98 251.337 384.91Z" fill="#004086"/>
<path d="M288.027 352.12C288.237 335.28 287.717 306.21 282.937 293.3C278.147 280.39 271.057 277.91 268.957 277.47C266.857 277.03 250.067 273.24 250.067 273.24C252.857 274.26 258.617 277.83 262.677 289.18C265.467 296.98 266.577 310.63 267.047 323.93C267.537 332.55 267.487 340.59 267.457 348.13C267.587 361.87 266.897 375.15 273.027 389.9L293.737 394.49C286.217 379.79 287.857 366.05 288.027 352.12Z" fill="#004086"/>
<path d="M112.147 303.81C115.607 301.98 118.787 298.04 120.747 295.96C113.887 293.13 114.948 276.26 114.948 271.13C114.948 266 114.387 230.89 113.777 212.74C113.167 194.59 111.428 163.46 106.888 143.47C103.308 127.7 97.2975 119.43 90.8675 115.08C87.4475 112.76 84.6275 111.49 80.5275 110.99L60.9575 108.54C62.8875 109.02 71.3275 112.17 77.9775 124.21C84.6975 136.38 85.2375 154.5 87.0375 172.19C87.4775 176.56 89.1775 195.38 89.5675 201.51C92.5475 247.89 86.9875 279.26 92.7675 295.63C98.5475 312 108.677 305.64 112.147 303.81Z" fill="#004086"/>
<path d="M213.037 376.61C212.937 376.38 212.827 376.15 212.737 375.92C204.867 357.04 209.397 335.2 207.657 307.27C206.687 291.64 207.297 265.9 191.907 259.78C191.907 259.78 191.357 259.62 191.047 259.55C188.947 259.09 172.667 255.18 172.667 255.18C188.067 261.3 187.457 286.99 188.427 302.62C190.167 330.55 185.638 352.39 193.508 371.27C193.668 371.65 193.827 372.02 193.997 372.39L213.037 376.61Z" fill="#004086"/>
<path d="M51.5876 175.87C56.3276 157.57 60.6977 138.62 64.3777 130.38C67.3077 123.82 71.0776 120.2 74.3376 118.6C68.8376 111.28 63.0177 108.96 60.9977 108.62C51.0477 107.01 43.4777 115.84 38.9077 125.19C34.3477 134.55 27.9276 173.93 25.3376 181.55C22.9976 188.44 21.5777 190.89 19.8477 191.34C19.8477 191.34 33.3177 193.67 38.8077 194.39C46.5677 195.41 49.4576 184.08 51.5876 175.87Z" fill="#003061"/>
<path d="M81.1572 131.61C81.1872 131.71 81.2173 131.8 81.2473 131.9C81.2173 131.81 81.1872 131.71 81.1572 131.61Z" fill="#003061"/>
<path d="M80.8676 130.76C80.8576 130.72 80.8476 130.69 80.8276 130.65C80.8376 130.69 80.8576 130.72 80.8676 130.76Z" fill="#003061"/>
<path d="M81.8774 133.95C81.8974 134.04 81.9274 134.12 81.9474 134.21C81.9274 134.12 81.9074 134.04 81.8774 133.95Z" fill="#003061"/>
<path d="M81.5273 132.77C81.5573 132.87 81.5874 132.96 81.6174 133.06C81.5874 132.96 81.5573 132.86 81.5273 132.77Z" fill="#003061"/>
<path d="M82.2178 135.15C82.2278 135.2 82.2478 135.26 82.2578 135.31C82.2478 135.26 82.2278 135.21 82.2178 135.15Z" fill="#003061"/>
<path d="M188.817 312.56C188.757 309.33 188.637 306.02 188.427 302.62C188.117 297.69 187.967 291.77 187.427 285.77C186.797 286.17 186.167 286.62 185.527 287.14C175.437 295.34 167.187 304.45 158.107 313.65C154.627 317.17 150.097 319.11 147.027 319.15L173.117 324.2C175.657 324.07 178.057 323.59 179.807 321.57C182.727 318.38 185.637 315.26 188.817 312.56Z" fill="#003061"/>
<path d="M187.557 287.31C187.557 287.27 187.547 287.23 187.547 287.19C187.547 287.23 187.557 287.27 187.557 287.31Z" fill="#B5031E"/>
<path d="M188.787 327.23C188.857 322.54 188.918 317.65 188.818 312.56C185.638 315.26 184.297 316.93 181.157 319.92C178.057 322.88 175.228 324.25 173.208 324.2L188.787 327.23Z" fill="#B5031E"/>
<path d="M76.8074 174.05C79.4774 161.74 81.4274 151.85 84.1274 144.43C82.9174 136.86 81.1474 129.92 78.0374 124.28C76.8374 122.11 75.5973 120.23 74.3373 118.6C71.0773 120.2 67.3174 123.82 64.3774 130.38C60.6874 138.62 56.3273 157.57 51.5873 175.87C49.5573 183.69 46.7573 194 39.7773 194.52C43.5773 195.02 58.6574 196.99 63.1374 197.46C71.4274 198.34 75.0174 182.34 76.8074 174.05Z" fill="#B5031E"/>
<path d="M32.7276 147.68C34.8376 137.97 37.0276 129.04 38.9076 125.19C42.2076 118.43 47.0776 111.95 53.2876 109.48C51.0876 98.71 50.1476 77.45 50.9776 65.52C51.8476 53.02 54.0576 31.01 65.3976 4.35001C65.6176 3.83001 65.8376 3.32 66.0576 2.81L34.9476 1.25C28.9676 20.22 24.0576 49.97 26.3076 96.43C27.8576 128.45 30.3876 142.25 32.7276 147.68Z" fill="#F40A2A"/>
<path d="M78.1278 167.91C77.7378 169.91 77.3078 171.96 76.8078 174.05C76.7978 174.08 76.7978 174.1 76.7878 174.13C75.0178 182.31 71.5078 197.84 63.5078 197.49C68.8278 198.06 84.2878 200.34 89.5478 201.03C89.0078 192.93 87.4178 175.78 87.0678 172.26C86.1278 162.78 85.5178 153.17 84.1278 144.42C84.1278 144.42 84.1278 144.42 84.1278 144.43C81.8978 150.58 80.1678 158.41 78.1278 167.91Z" fill="#003061"/>
<path d="M149.297 137.07C157.127 156.03 159.237 201.16 160.397 219.79C160.507 221.56 160.628 223.5 160.758 225.57C161.308 234.54 162.007 245.92 162.597 255.97C165.787 254.71 168.977 254.14 172.227 255.08L187.078 258.63C186.318 249.49 186.347 230.95 184.927 215.02C180.237 162.46 178.268 134.5 154.568 122.62C150.058 121.94 139.487 120.01 128.167 118.23C138.967 119.94 144.527 125.51 149.297 137.07Z" fill="#F40A2A"/>
<path d="M153.318 122.41L153.178 122.39C153.218 122.39 153.268 122.4 153.318 122.41Z" fill="#004086"/>
<path d="M209.138 227.06C207.958 207.97 205.888 167.1 200.088 152.35C190.828 128.8 177.698 126.4 170.448 125.26L154.598 122.62C178.258 134.5 180.228 162.46 184.918 215C186.338 230.92 186.298 249.32 187.058 258.46C187.058 258.46 187.068 258.56 187.068 258.62L211.348 264.46C210.898 251.84 209.748 236.78 209.138 227.06Z" fill="#004086"/>
<path d="M90.8775 115.08C97.3075 119.44 103.317 127.71 106.897 143.47C106.907 143.53 106.918 143.58 106.938 143.64C111.398 163.7 113.197 194.7 113.807 212.82C114.417 230.96 114.977 266.08 114.977 271.21C114.977 274.41 114.567 282.2 115.927 288.29C116.747 291.9 118.197 294.9 120.747 295.96C125.677 290.44 133.417 281.54 139.497 274.85C136.837 264.24 139.648 246.12 137.768 208.24C135.438 161.41 134.757 128.14 110.597 115.69C101.917 114.32 90.5375 112.63 83.4375 111.52C86.0975 112.2 88.3275 113.35 90.8775 115.08Z" fill="#F40A2A"/>
<path d="M147.027 319.16L148.207 319.39L147.087 319.16C147.057 319.15 147.037 319.16 147.027 319.16Z" fill="#B5031E"/>
<path d="M158.098 313.66C167.178 304.46 175.428 295.34 185.518 287.15C186.158 286.63 186.788 286.18 187.418 285.78C186.758 278.5 185.518 271.11 182.708 265.27C181.688 265.52 180.648 265.84 179.608 266.22C179.588 266.23 179.568 266.23 179.548 266.24C179.308 266.33 179.068 266.42 178.818 266.52C178.808 266.52 178.798 266.53 178.798 266.53C178.288 266.74 177.768 266.96 177.258 267.2C177.238 267.21 177.218 267.22 177.198 267.23C176.698 267.47 176.208 267.72 175.708 267.99C175.658 268.02 175.608 268.05 175.558 268.08C175.358 268.19 175.148 268.31 174.948 268.43C174.758 268.54 174.578 268.66 174.388 268.77C174.328 268.81 174.258 268.85 174.198 268.89C174.098 268.95 173.998 269.02 173.898 269.09C173.428 269.4 172.958 269.73 172.498 270.08C172.238 270.28 171.978 270.49 171.718 270.7C171.338 271.01 170.968 271.33 170.608 271.67C158.838 282.76 151.388 290.25 146.078 295.79C142.978 299.07 141.038 301.26 138.548 303.79C136.648 305.82 134.988 307.58 133.238 309.31C129.568 312.93 126.068 313.71 120.998 313.02L147.058 319.17C150.138 319.1 154.648 317.16 158.098 313.66Z" fill="#B5031E"/>
<path d="M150.537 319.84L148.197 319.39L150.437 319.85C150.467 319.84 150.507 319.84 150.537 319.84Z" fill="#B5031E"/>
<path d="M120.747 295.95C118.837 297.98 115.767 301.78 112.407 303.66C111.927 303.95 111.437 304.21 110.957 304.45C108.607 305.69 104.847 307.39 101.067 306.09C122.557 314.15 126.267 316.19 133.257 309.3C140.227 302.44 145.797 295.06 170.637 271.67C174.237 268.28 178.647 266.29 182.727 265.28C180.517 260.68 177.327 257.04 172.677 255.19C164.307 252.6 155.147 258.76 144.487 269.51C136.947 277.1 127.807 288.19 120.747 295.95Z" fill="#003061"/>
</svg>
