<svg width="50" height="57" viewBox="0 0 50 57" fill="none" xmlns="http://www.w3.org/2000/svg">
<path d="M28.2055 2.78H49.9998V0H28.2055C26.6652 0 25.2149 0.599999 24.1147 1.69L20.2539 5.54H24.1847L26.0751 3.65C26.6552 3.09 27.4053 2.78 28.2055 2.78Z" fill="#154298"/>
<path d="M31.9455 16.6602H29.1655V27.7702H31.9455V16.6602Z" fill="#CF122D"/>
<path d="M39.8579 22.21H34.7269V24.99H37.9375L41.0581 33.32H3.40067L6.52129 24.99H9.72193V22.21H4.59091L0 34.45V56.91H44.4288V34.46L39.8579 22.21ZM41.6683 54.14H2.79055V36.1H41.6683V54.14Z" fill="#154298"/>
<path d="M12.5024 5.55005V27.76H15.283V8.33005H29.1657V9.72005H31.9463V5.55005H12.5024Z" fill="#CF122D"/>
<path d="M34.7269 27.76H9.73193V30.54H34.7269V27.76Z" fill="#154298"/>
<path d="M42.6186 11.1101C42.8986 10.2801 43.0586 9.39007 43.0586 8.46007V8.32007L40.2781 8.34007V8.47007C40.2781 11.4601 37.8476 13.8801 34.867 13.8801H23.9549C24.4149 13.0501 25.2951 12.4901 26.3153 12.4901H34.727V9.71007H26.3153C23.2947 9.71007 20.8442 12.1601 20.8442 15.1801V16.6501H34.877C37.3175 16.6501 39.5079 15.5801 41.0082 13.8801H50V11.1001H42.6186V11.1101Z" fill="#154298"/>
</svg>
