<svg width="161" height="39" viewBox="0 0 161 39" fill="none" xmlns="http://www.w3.org/2000/svg">
<path d="M57.0191 30.84H60.8877L66.9717 14.1752H62.7394L58.9369 26.0125L55.1343 14.1752H50.9351L57.0191 30.84Z" fill="#0D4752"/>
<path d="M74.7847 31.1046C79.8437 31.1046 83.4808 27.4674 83.4808 22.5076C83.4808 17.5478 79.8437 13.9106 74.7847 13.9106C69.7257 13.9106 66.0885 17.5478 66.0885 22.5076C66.0885 27.4674 69.7257 31.1046 74.7847 31.1046ZM74.7847 27.5005C72.0733 27.5005 70.2878 25.4835 70.2878 22.5076C70.2878 19.5317 72.0733 17.5147 74.7847 17.5147C77.463 17.5147 79.2816 19.5317 79.2816 22.5076C79.2816 25.4835 77.463 27.5005 74.7847 27.5005Z" fill="#0D4752"/>
<path d="M93.1013 31.1046C97.3006 31.1046 100.31 28.9884 100.938 25.4835L96.8707 24.6568C96.4739 26.4424 95.1844 27.5005 93.2335 27.5005C90.6545 27.5005 88.9681 25.5496 88.9681 22.5076C88.9681 19.4656 90.6545 17.5147 93.2335 17.5147C95.1844 17.5147 96.5731 18.7051 96.8707 20.4576L100.938 19.664C100.376 16.126 97.3667 13.9106 93.1013 13.9106C88.1084 13.9106 84.6366 17.4155 84.6366 22.5076C84.6366 27.5996 88.1084 31.1046 93.1013 31.1046Z" fill="#0D4752"/>
<path d="M109.784 31.1046C111.867 31.1046 113.719 30.2449 114.546 28.9223V30.84H118.712V7.42984H114.546V16.0268C113.587 14.7703 111.801 13.9106 109.718 13.9106C104.791 13.9106 101.849 17.4155 101.849 22.5076C101.849 27.5996 104.791 31.1046 109.784 31.1046ZM110.379 27.5005C107.734 27.5005 105.982 25.5165 105.982 22.5076C105.982 19.4987 107.734 17.5147 110.379 17.5147C113.058 17.5147 114.81 19.4987 114.81 22.5076C114.81 25.5165 113.058 27.5005 110.379 27.5005Z" fill="#0D4752"/>
<path d="M128.745 31.1046C133.804 31.1046 137.441 27.4674 137.441 22.5076C137.441 17.5478 133.804 13.9106 128.745 13.9106C123.686 13.9106 120.049 17.5478 120.049 22.5076C120.049 27.4674 123.686 31.1046 128.745 31.1046ZM128.745 27.5005C126.034 27.5005 124.248 25.4835 124.248 22.5076C124.248 19.5317 126.034 17.5147 128.745 17.5147C131.423 17.5147 133.242 19.5317 133.242 22.5076C133.242 25.4835 131.423 27.5005 128.745 27.5005Z" fill="#0D4752"/>
<path d="M138.754 30.84H142.92V23.5326C142.92 19.7962 144.408 17.6139 146.954 17.6139C148.905 17.6139 150.129 18.9696 150.129 20.9205V30.84H154.295V19.9285C154.295 16.2913 151.848 13.9106 148.211 13.9106C145.863 13.9106 143.978 15.0679 142.92 16.6881V14.1752H138.754V30.84Z" fill="#0D4752"/>
<path d="M156.502 30.84H160.668V14.1752H156.502V30.84Z" fill="#0D4752"/>
<circle cx="158.514" cy="9.95674" r="2.48611" fill="#0D4752"/>
<path d="M0 16.4125V25.8276C0 26.264 0.229588 26.6682 0.604403 26.8917L20.056 38.4907C20.4469 38.7238 20.9342 38.7238 21.3251 38.4907L40.7767 26.8917C41.1515 26.6682 41.3811 26.264 41.3811 25.8276V16.4125C41.3811 16.0526 40.9894 15.8293 40.6797 16.0127L21.3218 27.4763C20.9325 27.7068 20.4485 27.7068 20.0592 27.4763L0.701336 16.0127C0.391631 15.8293 0 16.0526 0 16.4125Z" fill="url(#paint0_linear)"/>
<path d="M13.0791 0.8197V10.2719C13.0791 10.7087 13.3091 11.1133 13.6845 11.3366L23.8166 17.3657C24.1263 17.5499 24.5188 17.3268 24.5188 16.9664V7.55184C24.5188 7.11624 24.29 6.71265 23.9163 6.48888L13.7824 0.421091C13.4727 0.23567 13.0791 0.458758 13.0791 0.8197Z" fill="url(#paint1_linear)"/>
<defs>
<linearGradient id="paint0_linear" x1="20.6905" y1="15.5974" x2="20.6905" y2="38.8691" gradientUnits="userSpaceOnUse">
<stop stop-color="#A3EC93"/>
<stop offset="1" stop-color="#46C4C2"/>
</linearGradient>
<linearGradient id="paint1_linear" x1="18.7989" y1="0" x2="18.7989" y2="17.7835" gradientUnits="userSpaceOnUse">
<stop stop-color="#A3EC93"/>
<stop offset="1" stop-color="#46C4C2"/>
</linearGradient>
</defs>
</svg>

