<svg width="20" height="20" viewBox="0 0 20 20" fill="none" xmlns="http://www.w3.org/2000/svg">
<path d="M17.0007 3.00005H16.0007V1.00002C16.0007 0.734795 15.8954 0.480437 15.7078 0.292898C15.5203 0.105358 15.2659 0 15.0007 0C14.7355 0 14.4811 0.105358 14.2936 0.292898C14.1061 0.480437 14.0007 0.734795 14.0007 1.00002V3.00005H6.00058V1.00002C6.00058 0.734795 5.89522 0.480437 5.70768 0.292898C5.52014 0.105358 5.26579 0 5.00056 0C4.73534 0 4.48099 0.105358 4.29345 0.292898C4.10591 0.480437 4.00055 0.734795 4.00055 1.00002V3.00005H3.00053C2.20487 3.00005 1.4418 3.31612 0.879181 3.87874C0.316564 4.44136 0.000488281 5.20443 0.000488281 6.00009V7.00011H20.0008V6.00009C20.0008 5.20443 19.6847 4.44136 19.1221 3.87874C18.5595 3.31612 17.7964 3.00005 17.0007 3.00005Z" fill="#46C4C2"/>
<path d="M0 17.0001C0 17.7958 0.316075 18.5589 0.878693 19.1215C1.44131 19.6841 2.20438 20.0002 3.00005 20.0002H17.0003C17.7959 20.0002 18.559 19.6841 19.1216 19.1215C19.6842 18.5589 20.0003 17.7958 20.0003 17.0001V9H0V17.0001Z" fill="#A3EC93"/>
</svg>


