<svg width="52" height="52" viewBox="0 0 52 52" fill="none" xmlns="http://www.w3.org/2000/svg">
<path d="M50.375 43.8761H27.625C26.728 43.8761 26 43.1481 26 42.2511C26 41.3541 26 10.6481 26 9.7511C26 8.8541 26.728 8.1261 27.625 8.1261H50.375C51.272 8.1261 52 8.8541 52 9.7511V42.2511C52 43.1481 51.272 43.8761 50.375 43.8761Z" fill="#ECEFF1"/>
<path d="M34.125 17.8761H27.625C26.728 17.8761 26 17.1481 26 16.2511C26 15.3541 26.728 14.6261 27.625 14.6261H34.125C35.022 14.6261 35.75 15.3541 35.75 16.2511C35.75 17.1481 35.022 17.8761 34.125 17.8761Z" fill="#46C4C2"/>
<path d="M34.125 24.3761H27.625C26.728 24.3761 26 23.6481 26 22.7511C26 21.8541 26.728 21.1261 27.625 21.1261H34.125C35.022 21.1261 35.75 21.8541 35.75 22.7511C35.75 23.6481 35.022 24.3761 34.125 24.3761Z" fill="#46C4C2"/>
<path d="M34.125 30.8761H27.625C26.728 30.8761 26 30.1481 26 29.2511C26 28.3541 26.728 27.6261 27.625 27.6261H34.125C35.022 27.6261 35.75 28.3541 35.75 29.2511C35.75 30.1481 35.022 30.8761 34.125 30.8761Z" fill="#46C4C2"/>
<path d="M34.125 37.3761H27.625C26.728 37.3761 26 36.6481 26 35.7511C26 34.8541 26.728 34.1261 27.625 34.1261H34.125C35.022 34.1261 35.75 34.8541 35.75 35.7511C35.75 36.6481 35.022 37.3761 34.125 37.3761Z" fill="#46C4C2"/>
<path d="M43.875 17.8761H40.625C39.728 17.8761 39 17.1481 39 16.2511C39 15.3541 39.728 14.6261 40.625 14.6261H43.875C44.772 14.6261 45.5 15.3541 45.5 16.2511C45.5 17.1481 44.772 17.8761 43.875 17.8761Z" fill="#46C4C2"/>
<path d="M43.875 24.3761H40.625C39.728 24.3761 39 23.6481 39 22.7511C39 21.8541 39.728 21.1261 40.625 21.1261H43.875C44.772 21.1261 45.5 21.8541 45.5 22.7511C45.5 23.6481 44.772 24.3761 43.875 24.3761Z" fill="#46C4C2"/>
<path d="M43.875 30.8761H40.625C39.728 30.8761 39 30.1481 39 29.2511C39 28.3541 39.728 27.6261 40.625 27.6261H43.875C44.772 27.6261 45.5 28.3541 45.5 29.2511C45.5 30.1481 44.772 30.8761 43.875 30.8761Z" fill="#46C4C2"/>
<path d="M43.875 37.3761H40.625C39.728 37.3761 39 36.6481 39 35.7511C39 34.8541 39.728 34.1261 40.625 34.1261H43.875C44.772 34.1261 45.5 34.8541 45.5 35.7511C45.5 36.6481 44.772 37.3761 43.875 37.3761Z" fill="#46C4C2"/>
<path d="M28.6618 1.99984C28.2913 1.69109 27.794 1.55784 27.326 1.65534L1.326 6.53034C0.55575 6.67334 0 7.34284 0 8.12609V43.8761C0 44.6561 0.55575 45.3288 1.326 45.4718L27.326 50.3468C27.4235 50.3663 27.5243 50.3761 27.625 50.3761C28.002 50.3761 28.3693 50.2461 28.6618 50.0023C29.0355 49.6936 29.25 49.2321 29.25 48.7511V3.25109C29.25 2.76684 29.0355 2.30859 28.6618 1.99984Z" fill="#46C4C2"/>
<path d="M22.3472 31.4319L17.209 25.5591L22.4057 18.8771C22.9582 18.1686 22.8282 17.1481 22.123 16.5956C21.4177 16.0431 20.3972 16.1731 19.8415 16.8784L15.0282 23.0664L10.9722 18.4319C10.3775 17.7494 9.35046 17.6876 8.68096 18.2791C8.00496 18.8706 7.93671 19.8976 8.52821 20.5704L12.997 25.6794L8.46646 31.5034C7.91396 32.2119 8.04396 33.2324 8.74921 33.7849C9.04821 34.0156 9.40246 34.1261 9.75021 34.1261C10.2345 34.1261 10.7122 33.9116 11.034 33.4989L15.1777 28.1689L19.9032 33.5671C20.225 33.9376 20.6735 34.1261 21.1252 34.1261C21.5055 34.1261 21.8857 33.9929 22.1945 33.7231C22.8705 33.1316 22.9387 32.1046 22.3472 31.4319Z" fill="#FAFAFA"/>
<path d="M50.375 43.8761H27.625C26.728 43.8761 26 43.1481 26 42.2511C26 41.3541 26 10.6481 26 9.7511C26 8.8541 26.728 8.1261 27.625 8.1261H50.375C51.272 8.1261 52 8.8541 52 9.7511V42.2511C52 43.1481 51.272 43.8761 50.375 43.8761Z" fill="#ECEFF1"/>
<path d="M34.125 17.8761H27.625C26.728 17.8761 26 17.1481 26 16.2511C26 15.3541 26.728 14.6261 27.625 14.6261H34.125C35.022 14.6261 35.75 15.3541 35.75 16.2511C35.75 17.1481 35.022 17.8761 34.125 17.8761Z" fill="#46C4C2"/>
<path d="M34.125 24.3761H27.625C26.728 24.3761 26 23.6481 26 22.7511C26 21.8541 26.728 21.1261 27.625 21.1261H34.125C35.022 21.1261 35.75 21.8541 35.75 22.7511C35.75 23.6481 35.022 24.3761 34.125 24.3761Z" fill="#46C4C2"/>
<path d="M34.125 30.8761H27.625C26.728 30.8761 26 30.1481 26 29.2511C26 28.3541 26.728 27.6261 27.625 27.6261H34.125C35.022 27.6261 35.75 28.3541 35.75 29.2511C35.75 30.1481 35.022 30.8761 34.125 30.8761Z" fill="#46C4C2"/>
<path d="M34.125 37.3761H27.625C26.728 37.3761 26 36.6481 26 35.7511C26 34.8541 26.728 34.1261 27.625 34.1261H34.125C35.022 34.1261 35.75 34.8541 35.75 35.7511C35.75 36.6481 35.022 37.3761 34.125 37.3761Z" fill="#46C4C2"/>
<path d="M43.875 17.8761H40.625C39.728 17.8761 39 17.1481 39 16.2511C39 15.3541 39.728 14.6261 40.625 14.6261H43.875C44.772 14.6261 45.5 15.3541 45.5 16.2511C45.5 17.1481 44.772 17.8761 43.875 17.8761Z" fill="#46C4C2"/>
<path d="M43.875 24.3761H40.625C39.728 24.3761 39 23.6481 39 22.7511C39 21.8541 39.728 21.1261 40.625 21.1261H43.875C44.772 21.1261 45.5 21.8541 45.5 22.7511C45.5 23.6481 44.772 24.3761 43.875 24.3761Z" fill="#46C4C2"/>
<path d="M43.875 30.8761H40.625C39.728 30.8761 39 30.1481 39 29.2511C39 28.3541 39.728 27.6261 40.625 27.6261H43.875C44.772 27.6261 45.5 28.3541 45.5 29.2511C45.5 30.1481 44.772 30.8761 43.875 30.8761Z" fill="#46C4C2"/>
<path d="M43.875 37.3761H40.625C39.728 37.3761 39 36.6481 39 35.7511C39 34.8541 39.728 34.1261 40.625 34.1261H43.875C44.772 34.1261 45.5 34.8541 45.5 35.7511C45.5 36.6481 44.772 37.3761 43.875 37.3761Z" fill="#46C4C2"/>
<path d="M28.6618 1.99984C28.2913 1.69109 27.794 1.55784 27.326 1.65534L1.326 6.53034C0.55575 6.67334 0 7.34284 0 8.12609V43.8761C0 44.6561 0.55575 45.3288 1.326 45.4718L27.326 50.3468C27.4235 50.3663 27.5243 50.3761 27.625 50.3761C28.002 50.3761 28.3693 50.2461 28.6618 50.0023C29.0355 49.6936 29.25 49.2321 29.25 48.7511V3.25109C29.25 2.76684 29.0355 2.30859 28.6618 1.99984Z" fill="#46C4C2"/>
<path d="M22.3472 31.4319L17.209 25.5591L22.4057 18.8771C22.9582 18.1686 22.8282 17.1481 22.123 16.5956C21.4177 16.0431 20.3972 16.1731 19.8415 16.8784L15.0282 23.0664L10.9722 18.4319C10.3775 17.7494 9.35046 17.6876 8.68096 18.2791C8.00496 18.8706 7.93671 19.8976 8.52821 20.5704L12.997 25.6794L8.46646 31.5034C7.91396 32.2119 8.04396 33.2324 8.74921 33.7849C9.04821 34.0156 9.40246 34.1261 9.75021 34.1261C10.2345 34.1261 10.7122 33.9116 11.034 33.4989L15.1777 28.1689L19.9032 33.5671C20.225 33.9376 20.6735 34.1261 21.1252 34.1261C21.5055 34.1261 21.8857 33.9929 22.1945 33.7231C22.8705 33.1316 22.9387 32.1046 22.3472 31.4319Z" fill="#FAFAFA"/>
</svg>

