<svg fill="none" height="58" viewBox="0 0 154 58" width="154" xmlns="http://www.w3.org/2000/svg" xmlns:xlink="http://www.w3.org/1999/xlink"><linearGradient id="a" gradientUnits="userSpaceOnUse" x1=".425293" x2="52.3908" y1="15.1774" y2="28.3063"><stop offset="0" stop-color="#a3ec93"/><stop offset="1" stop-color="#46c4c2"/></linearGradient><path d="m49.0001 16.4301v25.1397c0 .8989-.4795 1.7295-1.258 2.1789l-21.7715 12.5699c-.7785.4494-1.7376.4494-2.516 0l-21.77133-12.5699c-.778439-.4494-1.257977-1.28-1.257977-2.1789v-25.1397c0-.8988.479538-1.7294 1.257977-2.1789l21.77133-12.56981c.7784-.44944 1.7375-.44944 2.516 0l21.7715 12.56981c.7785.4495 1.258 1.2801 1.258 2.1789z" fill="url(#a)"/><path d="m8.0238 27.6524v7.1976c0 .3946.21027.7593.55177.9569l15.56523 9.0099c.3427.1983.7652.1983 1.1078 0l15.5653-9.0099c.3415-.1976.5517-.5623.5517-.9569v-7.1976c0-.3188-.3448-.5184-.6212-.3595l-15.4986 8.9094c-.3412.1961-.7609.1961-1.1021 0l-15.49863-8.9094c-.27642-.1589-.62127.0407-.62127.3595z" fill="#fff"/><path d="m18.5619 15.457v7.2263c0 .3949.2106.7599.5526.9574l8.0426 4.6455c.2765.1597.622-.0398.622-.359v-7.1972c0-.3939-.2095-.758-.55-.9559l-8.0442-4.6756c-.2764-.1606-.623.0388-.623.3585z" fill="#fff"/><g fill="#0d4752"><path d="m68.0302 37.3552h3.1985l5.0302-13.7783h-3.4993l-3.1438 9.787-3.1439-9.787h-3.4719z"/><path d="m82.7185 37.5739c4.1827 0 7.1899-3.0072 7.1899-7.1078 0-4.1007-3.0072-7.1079-7.1899-7.1079s-7.1898 3.0072-7.1898 7.1079c0 4.1006 3.0071 7.1078 7.1898 7.1078zm0-2.9798c-2.2417 0-3.7179-1.6676-3.7179-4.128s1.4762-4.1281 3.7179-4.1281c2.2144 0 3.718 1.6677 3.718 4.1281s-1.5036 4.128-3.718 4.128z"/><path d="m97.8624 37.5739c3.4716 0 5.9596-1.7496 6.4786-4.6474l-3.362-.6835c-.328 1.4763-1.3943 2.3511-3.0072 2.3511-2.1324 0-3.5266-1.6129-3.5266-4.128s1.3942-4.1281 3.5266-4.1281c1.6129 0 2.7612.9842 3.0072 2.4331l3.362-.6561c-.464-2.9251-2.952-4.7568-6.4786-4.7568-4.128 0-6.9985 2.8978-6.9985 7.1079 0 4.21 2.8705 7.1078 6.9985 7.1078z"/><path d="m111.656 37.5739c1.722 0 3.253-.7108 3.936-1.8043v1.5856h3.445v-19.3552h-3.445v7.1078c-.793-1.0388-2.269-1.7496-3.991-1.7496-4.073 0-6.506 2.8978-6.506 7.1079 0 4.21 2.433 7.1078 6.561 7.1078zm.492-2.9798c-2.187 0-3.636-1.6403-3.636-4.128 0-2.4878 1.449-4.1281 3.636-4.1281 2.214 0 3.663 1.6403 3.663 4.1281 0 2.4877-1.449 4.128-3.663 4.128z"/><path d="m127.332 37.5739c4.183 0 7.19-3.0072 7.19-7.1078 0-4.1007-3.007-7.1079-7.19-7.1079s-7.19 3.0072-7.19 7.1079c0 4.1006 3.007 7.1078 7.19 7.1078zm0-2.9798c-2.242 0-3.718-1.6676-3.718-4.128s1.476-4.1281 3.718-4.1281c2.214 0 3.718 1.6677 3.718 4.1281s-1.504 4.128-3.718 4.128z"/><path d="m135.608 37.3552h3.444v-6.0417c0-3.0891 1.23-4.8934 3.335-4.8934 1.613 0 2.625 1.1208 2.625 2.7337v8.2014h3.444v-9.0215c0-3.0072-2.023-4.9755-5.03-4.9755-1.941 0-3.499.9568-4.374 2.2964v-2.0777h-3.444z"/><path d="m150.281 37.3552h3.445v-13.7783h-3.445z"/><circle cx="151.945" cy="20.0892" r="2.05548"/></g></svg>