<svg width="49" height="58" viewBox="0 0 49 58" fill="none" xmlns="http://www.w3.org/2000/svg">
<path d="M49.0001 16.4301V41.5698C49.0001 42.4687 48.5206 43.2993 47.7421 43.7487L25.9706 56.3186C25.1921 56.768 24.233 56.768 23.4546 56.3186L1.68327 43.7487C0.904831 43.2993 0.425293 42.4687 0.425293 41.5698V16.4301C0.425293 15.5313 0.904831 14.7007 1.68327 14.2512L23.4546 1.68139C24.233 1.23195 25.1921 1.23195 25.9706 1.68139L47.7421 14.2512C48.5206 14.7007 49.0001 15.5313 49.0001 16.4301Z" fill="url(#paint0_linear)"/>
<path d="M8.0238 27.6524V34.85C8.0238 35.2446 8.23407 35.6093 8.57557 35.8069L24.1408 44.8168C24.4835 45.0151 24.906 45.0151 25.2486 44.8168L40.8139 35.8069C41.1554 35.6093 41.3656 35.2446 41.3656 34.85V27.6524C41.3656 27.3336 41.0208 27.134 40.7444 27.2929L25.2458 36.2023C24.9046 36.3984 24.4849 36.3984 24.1437 36.2023L8.64507 27.2929C8.36865 27.134 8.0238 27.3336 8.0238 27.6524Z" fill="white"/>
<path d="M18.5619 15.457V22.6833C18.5619 23.0782 18.7725 23.4432 19.1145 23.6407L27.1571 28.2862C27.4336 28.4459 27.7791 28.2464 27.7791 27.9272V20.73C27.7791 20.3361 27.5696 19.972 27.2291 19.7741L19.1849 15.0985C18.9085 14.9379 18.5619 15.1373 18.5619 15.457Z" fill="white"/>
<defs>
<linearGradient id="paint0_linear" x1="0.425293" y1="15.1774" x2="52.3908" y2="28.3063" gradientUnits="userSpaceOnUse">
<stop stop-color="#A3EC93"/>
<stop offset="1" stop-color="#46C4C2"/>
</linearGradient>
</defs>
</svg>

