<svg width="23" height="16" viewBox="0 0 23 16" fill="none" xmlns="http://www.w3.org/2000/svg">
<path d="M11.5001 4.86377C13.2304 4.86377 14.6365 6.26988 14.6365 8.00011C14.6365 9.73034 13.2304 11.1364 11.5001 11.1364C9.76991 11.1364 8.3638 9.73034 8.3638 8.00011C8.3638 6.26988 9.76995 4.86377 11.5001 4.86377Z" fill="#46C4C2"/>
<path d="M11.5001 0.15918C16.7273 0.15918 21.1914 3.41049 23 8.00003C21.1914 12.5895 16.7273 15.8409 11.5001 15.8409C6.26763 15.8409 1.80878 12.5895 0.000144958 8.00003C1.80878 3.41049 6.26763 0.15918 11.5001 0.15918ZM11.5001 13.2272C14.3855 13.2272 16.7273 10.8854 16.7273 7.99998C16.7273 5.11455 14.3855 2.77278 11.5001 2.77278C8.61464 2.77278 6.27282 5.1146 6.27282 8.00003C6.27282 10.8855 8.61464 13.2272 11.5001 13.2272Z" fill="#A3EC93"/>
</svg>

