<svg width="26" height="25" viewBox="0 0 26 25" fill="none" xmlns="http://www.w3.org/2000/svg">
<path opacity="0.5" d="M22.7875 20.8278C26.3678 16.6982 25.9284 10.4707 21.8891 6.85645C23.9638 14.1268 18.4776 21.3892 10.9188 21.3892C10.7733 21.3892 11.6515 21.3943 8.1925 21.3729C10.0844 23.2559 12.6041 24.2822 15.2346 24.2822C15.2414 24.2822 24.5042 24.2348 24.5096 24.2348C25.142 24.2318 25.457 23.4622 25.0059 23.017L22.7875 20.8278Z" fill="#46C4C2"/>
<path d="M10.9188 19.9663C16.4235 19.9663 20.9019 15.4879 20.9019 9.98315C20.9019 4.47843 16.4235 0 10.9188 0C5.41415 0 0.935881 4.47843 0.935881 9.98315C0.935881 12.4066 1.79375 14.6986 3.36593 16.5119L1.14755 18.7011C0.697936 19.1449 1.00939 19.9158 1.64388 19.9189C1.64877 19.9189 10.914 19.9663 10.9188 19.9663ZM6.6743 6.44992H15.2108C15.6037 6.44992 15.9222 6.76844 15.9222 7.16131C15.9222 7.55419 15.6037 7.8727 15.2108 7.8727H6.6743C6.28141 7.8727 5.96293 7.55419 5.96293 7.16131C5.96293 6.76844 6.28146 6.44992 6.6743 6.44992ZM6.6743 9.29548H15.2108C15.6037 9.29548 15.9222 9.61399 15.9222 10.0069C15.9222 10.3997 15.6037 10.7183 15.2108 10.7183H6.6743C6.28141 10.7183 5.96293 10.3997 5.96293 10.0069C5.96293 9.61399 6.28146 9.29548 6.6743 9.29548ZM5.96293 12.8524C5.96293 12.4595 6.28141 12.141 6.6743 12.141H15.2108C15.6037 12.141 15.9222 12.4595 15.9222 12.8524C15.9222 13.2453 15.6037 13.5638 15.2108 13.5638H6.6743C6.28146 13.5638 5.96293 13.2453 5.96293 12.8524Z" fill="#46C4C2"/>
</svg>
